/* XPM */
static char *_010fde1acd5408dc4c51c28f4c42f1ewphyp0wgK4fff6sn[] = {
/* columns rows colors chars-per-pixel */
"64 64 89 1 ",
"  c #FF0000",
". c #FF1400",
"X c #FF170B",
"o c #FF190D",
"O c #FF2800",
"+ c #FF2D0D",
"@ c #FF3018",
"# c #ED7F06",
"$ c #FF7B00",
"% c #7A9C2D",
"& c #679E32",
"* c #699F32",
"= c #7DA02E",
"- c #6AA233",
"; c #6EA835",
": c #72AD37",
"> c #72AF38",
", c #76B037",
"< c #75B239",
"1 c #78B73A",
"2 c #7BBB3C",
"3 c #7FC13D",
"4 c #8B9927",
"5 c #8C9B28",
"6 c #97AB2F",
"7 c #99AE2E",
"8 c #9AB02E",
"9 c #82A630",
"0 c #83AA31",
"q c #97AC30",
"w c #87B235",
"e c #8AB435",
"r c #8DBA37",
"t c #8EBD38",
"y c #9EB532",
"u c #91BD37",
"i c #9FB833",
"p c #DE860D",
"a c #EE8207",
"s c #E0870D",
"d c #EF8408",
"f c #E28A0E",
"g c #F08307",
"h c #FF8200",
"j c #F28906",
"k c #FF8A00",
"l c #F08408",
"z c #FF860D",
"x c #FF8B0B",
"c c #FF9E00",
"v c #EF8911",
"b c #F18C12",
"n c #FF9018",
"m c #FDA601",
"M c #FFAC00",
"N c #FFA30D",
"B c #FFB200",
"V c #FFB60C",
"C c #FFB80D",
"Z c #FFBA18",
"A c #80C33E",
"S c #82C63F",
"D c #83C73F",
"F c #92C039",
"G c #97C63A",
"H c #98C93B",
"J c #9ACC3C",
"K c #A7C235",
"L c #FFA653",
"P c #FFBF5E",
"I c #FFBF60",
"U c #83C840",
"Y c #84C940",
"T c #87CE41",
"R c #88CF42",
"E c #89D042",
"W c #8BD443",
"Q c #FDC254",
"! c #FFC853",
"~ c #FFCE53",
"^ c #FFCB5E",
"/ c #FFCC5F",
"( c #FFD25E",
") c #FFCC60",
"_ c #FFD260",
"` c #FFD369",
"' c #FFD66B",
"] c #FFD76D",
"[ c #FFD86C",
/* pixels */
"&&&&&-::-&&-::-&&&&-:<2ea$$$$$$$$$$$$$$lFU222222<<<:-&&&&&&&&&&&",
"&&&&--<<--&-::------:>1ea$$$$$$$$$$$$$$luS111111<<::-&--------&&",
"&&&-3SSSS3--:<11111<---%#$$$$$$$$$$$$$$ae1------::--&-2SSA111<-&",
"--&-3SYYS3--<<22eeew%%%4vzzzzzzzzzzzzzzbq0%%%%%%>>-&--AUYU3321--",
"1<-&-;SS--3SSSSufgaa#aabQ/^^^^^^^^^^^^/Qv#aaaagfe1--<122UYEE2211",
"21----33--3SYYYFg$$$$$$z/]]]]]]]]]]]]]]/z$$$$$$ge<--<122SYEE3211",
"22A3<:<<-&-;SYYua$$$$$$z^]'''''']]]]]]]^z$$$$$$a%-::--122223SA--",
"22US<<::----ruuybzzzzzzn)]''''''_((((((!xhhhhhhd5=00--<11111S3-&",
"22US<:--111wfgabQ/^^^^^)'''''']_ZVVVVVVVMMMMMMMmjlap0:--<<--<<-&",
"23S3<<--122eg$$z/]]]]]]]''''''](VBBBBBBBBBBBBBBMh$$a0:--::--::-&",
"WT;-3S11SUUua$$z^]'''''''''']]](VBBBBBBBBBBBBBBMh$$a%-::--::<:-&",
"EY--AS22tFFibzzn)]''''''''''_((~VBBBBBBBBBBBBBBMkhhj5%00--::::--",
"--:<222efglbQ/^)'''''''''']_ZVVVBBBBBBBBBBBBBBBBMMMmjagft3----::",
"&-:<222eg$$z/]]]''''''''''](VBBBBBBBBBBBBBBBBBBBBBBMh$$guA----::",
"&-:<SUUua$$z^]''''''][[[]]](VBBBBBBBBBBBBBBBBBBBBBBMh$$ae211>:--",
"--:<ruFibzzn)]'''''`IPPP/((~VBBBBBBBBBBMccccMBBBBBBMkhhj7eew,:--",
"::<0sglbQ/^)'''''']I@oo+NCVVBBBBBBBBBBBcO..OcBBBBBBBMMMmjaap0<11",
":::0a$$z/]]]''''''[Po  .cBBBBBBBBBBBBBBc.  .cBBBBBBBBBBMh$$a0<22",
"---%a$$z^]''''''][[Po  .cBBBBBBBBBBBBBBc.  .cBBBBBBBBBBMh$$aw2EE",
"---%a$$z^]'''''`IPPLX  .kcccMBBBBBBMccck.  .kcccMBBBBBBMh$$ae3EE",
"111el$$z^]'''']I@ooX    ...OcBBBBBBcO...    ...OcBBBBBBMh$$aGE32",
"112el$$z^]''''[Po          .cBBBBBBc.          .cBBBBBBMh$$dHE22",
"--1e#$$z^]''''[Po          .cBBBBBBc.          .cBBBBBBMh$$lJE22",
"%%06vzzn)]''''[P+...    ...OcBBBBBBcO...    ...OcBBBBBBMkhhjKHee",
"###vQ/^)'''''']/Ncck.  .kcccMBBBBBBMccck.  .kcccMBBBBBBBMMMmjlaa",
"$$$z/]]]''''''](CBBc.  .cBBBBBBBBBBBBBBc.  .cBBBBBBBBBBBBBBMh$$$",
"$$$z^]'''''']]](VBBc.  .cBBBBBBBBBBBBBBc.  .cBBBBBBBBBBBBBBMh$$$",
"$$$z^]''''''_((~VBBcO..OcBBBBBBBBBBBBBBcO..OcBBBBBBBBBBBBBBMh$$$",
"$$$z^]'''']_ZVVVBBBMccccMBBBBBBBBBBBBBBMccccMBBBBBBBBBBBBBBMh$$$",
"$$$z^]''''](VBBBBBBBBBBBBBBBBBBBBBBBBBBBBBBBBBBBBBBBBBBBBBBMh$$$",
"$$$z^]'']]](VBBBBBBBBBBBBBBBBBBBBBBBBBBBBBBBBBBBBBBBBBBBBBBMh$$$",
"$$$z^]''_((~VBBBBBBBBBBBBBBBBBBBBBBBBBBBBBBBBBBBBBBBBBBBBBBMh$$$",
"$$$z^]]_ZVVVBBBBBBBBBBBBBBBBBBBBBBBBBBBBBBBBBBBBBBBBBBBBBBBMh$$$",
"$$$z^]](VBBBBBBBBBBBBBBBBBBBBBBBBBBBBBBBBBBBBBBBBBBBBBBBBBBMh$$$",
"$$$z^]](VBBBBBBBBBBBBBBBBBBBBBBBBBBBBBBBBBBBBBBBBBBBBBBBBBBMh$$$",
"$$$z^]](VBBBBBBBBBBMccccMBBBBBBBBBBBBBBMccccMBBBBBBBBBBBBBBMh$$$",
"$$$z^]](VBBBBBBBBBBcO..OcBBBBBBBBBBBBBBcO..OcBBBBBBBBBBBBBBMh$$$",
"$$$z^]](VBBBBBBBBBBc.  .cBBBBBBBBBBBBBBc.  .cBBBBBBBBBBBBBBMh$$$",
"$$$z/]](VBBBBBBBBBBc.  .cBBBBBBBBBBBBBBc.  .cBBBBBBBBBBBBBBMh$$$",
"###vQ/^!VBBBBBBMccck.  .kcccMBBBBBBMccck.  .kcccMBBBBBBBMMMmda##",
"%%%5bzzxMBBBBBBcO...    ...OcBBBBBBcO...    ...OcBBBBBBMkhhg60%%",
"--&%a$$hMBBBBBBc.          .cBBBBBBc.          .cBBBBBBMh$$ae1--",
"1<-%a$$hMBBBBBBc.          .cBBBBBBc.          .cBBBBBBMh$$le211",
"21-%#$$hMBBBBBBcO...    ...OcBBBBBBcO...    ...OcBBBBBBMh$$lr211",
"22Ara$$hMBBBBBBMccck.  .kcccMBBBBBBMccck.  .kcccMBBBBBBMh$$auA--",
"22Uua$$hMBBBBBBBBBBc.  .cBBBBBBBBBBBBBBc.  .cBBBBBBBBBBMh$$au3-&",
"22Uua$$hMBBBBBBBBBBc.  .cBBBBBBBBBBBBBBc.  .cBBBBBBBBBBMh$$#0<-&",
"23ArfaadmMMMBBBBBBBcO..OcBBBBBBBBBBBBBBcO..OcBBBBBBBMMMmga#p0:-&",
"WT;-rue7jhhkMBBBBBBMccccMBBBBBBBBBBBBBBMccccMBBBBBBMkhhg4%90>:-&",
"EY--AS2el$$hMBBBBBBBBBBBBBBBBBBBBBBBBBBBBBBBBBBBBBBMh$$a=-::::--",
"--:<222eg$$hMBBBBBBBBBBBBBBBBBBBBBBBBBBBBBBBBBBBBBBMh$$gu3----::",
"&-:<222efgljmMMMBBBBBBBBBBBBBBBBBBBBBBBBBBBBBBBBMMMmjagfFA----::",
"&-:<SUUSeee7jhhkMBBBBBBBBBBBBBBBBBBBBBBBBBBBBBBMkhhj7eee2211>:--",
"--:<ASYU222ea$$hMBBBBBBBBBBBBBBBBBBBBBBBBBBBBBBMh$$le2222211<:--",
"::<<<<SYUUUug$$hMBBBBBBBBBBBBBBBBBBBBBBBBBBBBBBMh$$ge22221--:<11",
"::::><SYSSStfgajmMMMMMMMBBBBBBBBBBBBBBBBMMMMMMMmjagfw11121--><23",
"----:<SS<<--tFuyghhhhhhkMBBBBBBBBBBBBBBMkhhhhhhj8eew----<>--12EW",
"----<<33<<-;ASSra$$$$$$hMBBBBBBBBBBBBBBMh$$$$$$le121-*&-><--23EW",
"1112RT;-12TT31-%a$$$$$$hMBBBBBBBBBBBBBBMh$$$$$$g=-<<::*-1212EE32",
"1122TY--<2TT2<-%paa###agmMMMMMMMMMMMMMMmjaaaaagf%*::<:--1223WE22",
"--11;-*&------&*0009%%%4dhhhhhhhhhhhhhhg5%%%00%%*&--:<1122EWWW22",
"&-<<-&&&&&&&&&&-><<<---%a$$$$$$$$$$$$$$a%-&-<<------><2222EWWW22",
"&&--&&&&*&&&&&&-1212TT2ea$$$$$$$$$$$$$$a9:--YR21111112222223EW32",
"&&&&&&&&*&&&&&&-1222WW2ea$$$$$$$$$$$$$$#0:--EW22222222222222WW22"
};
