/* XPM */
static char *_b075059d62d42dadc7ed11ff3508621cRD26lusoLcfxc1E[] = {
/* columns rows colors chars-per-pixel */
"64 64 83 1 ",
"  c black",
". c #FF7B00",
"X c #FF7B00",
"o c #FF7B00",
"O c #FF7A00",
"+ c #FF7A00",
"@ c #FF7B00",
"# c #FF7B00",
"$ c #FF8107",
"% c #FF860D",
"& c #FF7B00",
"* c #FF7B00",
"= c None",
"- c #FF7B00",
"; c #FF8200",
": c #FF7F00",
"> c #FFA600",
", c #FF7B00",
"< c #FF7A00",
"1 c #FF860D",
"2 c #FFCC5F",
"3 c #FFCB5E",
"4 c #FFD76D",
"5 c #FFD76C",
"6 c #FF850C",
"7 c #FFD66B",
"8 c #FFD66C",
"9 c #FFCB5F",
"0 c #FF9018",
"q c #FFCC60",
"w c #FFD569",
"e c #FFD260",
"r c #FFD25E",
"t c #FFD25F",
"y c #FFC853",
"u c #FF8B0B",
"i c #FF8100",
"p c #FF8200",
"a c #FFBA18",
"s c #FFB60C",
"d c #FFB60D",
"f c #FFB50B",
"g c #FFAD02",
"h c #FFAB00",
"j c #FFAC00",
"k c #FFB100",
"l c #FFB200",
"z c #FFB300",
"x c #FFCE53",
"c c #FFB60B",
"v c #FF8700",
"b c #FFB302",
"n c #FFD86C",
"m c #FFD369",
"M c #FFBF60",
"N c #FFBC5E",
"B c #FFBF5E",
"V c #FFCF5E",
"C c #FFAF00",
"Z c #FF9F00",
"A c #FF9C00",
"S c #FF3018",
"D c #FF180C",
"F c #FF190D",
"G c #FF2D0D",
"H c #FFA30D",
"J c #FFB80D",
"K c #FF2800",
"L c #FF1400",
"P c red",
"I c #FFD96D",
"U c #FFBE5F",
"Y c #FF1A0D",
"T c #FF1600",
"R c #FF9E00",
"E c #FFB500",
"W c #FFA653",
"Q c #FF170B",
"! c #FF1300",
"~ c #FF8A00",
"^ c #FF0302",
"/ c #FF0300",
"( c white",
/* pixels */
"                      .Xo,,,,,,,,,,,,,,oX.                      ",
"                      .Xo,,,,,,,,,,,,,,oX.                      ",
"              .........O+<<<<<<<<<<<<<<+O.........              ",
"              .@#XXXXXO$%11111111111111%$OXXXXX#@.              ",
"              .#&*oooo+%=23333333333332=%+oooo*&#.              ",
"              .X*,,,,,<124555555555555421<,,,,,*X.              ",
"          .....O+<<<<<<635777777888888491<,,,,,o-.....          ",
"          .@#XO$%1111160q577777werrrrrtyuippppp;:-X#@.          ",
"          .#&*+%=233333qw777778easdddddfghhhhhj>;o*&#.          ",
"          .X*,<1245555557777778rskllllllllllllzjp,,*X.          ",
"      .....O+<<6357777777777884tdllllllllllllllhi<,o-.....      ",
"      .@#XO$%160q5777777777wertxclllllllllllllljvip;:-X#@.      ",
"      .#&*+%=23qw7777777778easdcbllllllllllllllkjhj>;o*&#.      ",
"      .X*,<1245577777777778rskllllllllllllllllllllzjp,,*X.      ",
"  .....O+<<6357777775nnn884tdlllllllllllzzzzlllllllhi<,o-.....  ",
"  .@#XO$%160q577777mMNNBVrtxcllllllllllCZAAZClllllljvip;:-X#@.  ",
"  .#&*+%=23qw777775MSDFGHJdcblllllllllzZKLLKZzlllllkjhj>;o*&#.  ",
"  .X*,<12455777777nNDPPLAzllllllllllllzALPPLAzllllllllzjp,,*X.  ",
"  .Xo,<1357777775nIUYPPTREzzllllllllzzERTPPTREzzlllllllhp,,oX.  ",
"  .Xo,<13577777mMNUWQPP!~RAZCllllllCZAR~!PP!~RAZCllllllhp,,oX.  ",
"  .Xo,<13577775MSDYQ^PP/!TLKZzllllzZKLT!/PP/!TLKZzlllllhp,,oX.  ",
"  .Xo,<1357777nNDPPPPPPPPPPLAzllllzALPPPPPPPPPPLAzlllllhp,,oX.  ",
"...O+<<6357777nNFPPPPPPPPPPLAzllllzALPPPPPPPPPPLAzlllllhi<,o-...",
"XXO$%160q57777nBGLT!/PP/!TLKZzllllzZKLT!/PP/!TLKZzllllljvip;:-XX",
"oo+%=23qw777778VHAR~!PP!~RAZCllllllCZAR~!PP!~RAZCllllllkjhj>;ooo",
",,<124557777778rJzERTPPTREzzllllllllzzERTPPTREzzllllllllllzjp,,,",
",,<135777777884tdlzALPPLAzllllllllllllzALPPLAzlllllllllllllhp,,,",
",,<13577777wertxclzZKLLKZzllllllllllllzZKLLKZzlllllllllllllhp,,,",
",,<13577778easdcbllCZAAZCllllllllllllllCZAAZCllllllllllllllhp,,,",
",,<13577778rskllllllzzzzllllllllllllllllzzzzlllllllllllllllhp,,,",
",,<13577884tdllllllllllllllllllllllllllllllllllllllllllllllhp,,,",
",,<1357wertxcllllllllllllllllllllllllllllllllllllllllllllllhp,,,",
",,<1358easdcbllllllllllllllllllllllllllllllllllllllllllllllhp,,,",
",,<1358rsklllllllllllllllllllllllllllllllllllllllllllllllllhp,,,",
",,<1358rdlllllllllllzzzzllllllllllllllllzzzzlllllllllllllllhp,,,",
",,<1358rdllllllllllCZAAZCllllllllllllllCZAAZCllllllllllllllhp,,,",
",,<1358rdlllllllllzZKLLKZzllllllllllllzZKLLKZzlllllllllllllhp,,,",
",,<1358rdlllllllllzALPPLAzllllllllllllzALPPLAzlllllllllllllhp,,,",
",,<1244tdlllllllzzERTPPTREzzllllllllzzERTPPTREzzllllllllllzjp,,,",
"oo+%=29yfllllllCZAR~!PP!~RAZCllllllCZAR~!PP!~RAZCllllllkjhj>;ooo",
"XXO$%11uglllllzZKLT!/PP/!TLKZzllllzZKLT!/PP/!TLKZzllllljvip;:-XX",
"...O+<<ihlllllzALPPPPPPPPPPLAzllllzALPPPPPPPPPPLAzlllllhi<,o-...",
"  .Xo,,phlllllzALPPPPPPPPPPLAzllllzALPPPPPPPPPPLAzlllllhp,,oX.  ",
"  .Xo,,phlllllzZKLT!/PP/!TLKZzllllzZKLT!/PP/!TLKZzlllllhp,,oX.  ",
"  .Xo,,phllllllCZAR~!PP!~RAZCllllllCZAR~!PP!~RAZCllllllhp,,oX.  ",
"  .Xo,,phlllllllzzERTPPTREzzllllllllzzERTPPTREzzlllllllhp,,oX.  ",
"  .X*,,pjzllllllllzALPPLAzllllllllllllzALPPLAzllllllllzjp,,*X.  ",
"  .#&*o;>jhjklllllzZKLLKZzllllllllllllzZKLLKZzlllllkjhj>;o*&#.  ",
"  .@#X-:;pivjllllllCZAAZCllllllllllllllCZAAZClllllljvip;:-X#@.  ",
"  .....-o,<ihlllllllzzzzllllllllllllllllzzzzlllllllhi<,o-.....  ",
"      .X*,,pjzllllllllllllllllllllllllllllllllllllzjp,,*X.      ",
"      .#&*o;>jhjkllllllllllllllllllllllllllllllkjhj>;o*&#.      ",
"      .@#X-:;pivjlllllllllllllllllllllllllllllljvip;:-X#@.      ",
"      .....-o,<ihllllllllllllllllllllllllllllllhi<,o-.....      ",
"          .X*,,pjzllllllllllllllllllllllllllllzjp,,*X.          ",
"          .#&*o;>jhhhhhjkllllllllllllllkjhhhhhj>;o*&#.          ",
"          .@#X-:;pppppivjlllllllllllllljvippppp;:-X#@.          ",
"          .....-o,,,,,<ihllllllllllllllhi<,,,,,o-.....          ",
"              .X*,,,,,,pjzllllllllllllzjp,,,,,,*X.              ",
"              .#&*ooooo;>jhhhhhhhhhhhhj>;ooooo*&#.              ",
"              .@#XXXXX-:;pppppppppppppp;:-XXXXX#@.              ",
"              .........-o,,,,,,,,,,,,,,o-.........              ",
"                      .Xo,,,,,,,,,,,,,,oX.                      ",
"                      .Xo,,,,,,,,,,,,,,oX.                      "
};
