/* XPM */
static char *_326cb72da2849fe80f917e1c2e45db0oxS2OuT6lNPhZF2f[] = {
/* columns rows colors chars-per-pixel */
"64 64 237 2 ",
"   c None",
".  c #371B0C",
"X  c #301109",
"o  c #1D290A",
"O  c #1D3409",
"+  c #1D3A1A",
"@  c #1B3517",
"#  c #152E13",
"$  c #252B0C",
"%  c #282609",
"&  c #36270B",
"*  c #223B0D",
"=  c #29360C",
"-  c #38370E",
";  c #372A14",
":  c #213C11",
">  c #293C13",
",  c #2C2C10",
"<  c #1D3B22",
"1  c #163528",
"2  c #1B3E33",
"3  c #243028",
"4  c #48190C",
"5  c #531A0A",
"6  c #531B12",
"7  c #450308",
"8  c #4C2B0E",
"9  c #46350E",
"0  c #5B340E",
"q  c #482A17",
"w  c #582815",
"e  c #483815",
"r  c #573517",
"t  c #5A2A0F",
"y  c #632B1A",
"u  c #6C2D1A",
"i  c #652713",
"p  c #782B14",
"a  c #683319",
"s  c #76341B",
"d  c #64330F",
"f  c #481A3F",
"g  c #44372F",
"h  c #56372B",
"j  c #653B21",
"k  c #753924",
"l  c #663330",
"z  c #691D12",
"x  c #25430E",
"c  c #2A440D",
"v  c #2C4A0D",
"b  c #35480C",
"n  c #34520D",
"m  c #3C5C0E",
"M  c #39550C",
"N  c #264511",
"B  c #294611",
"V  c #264812",
"C  c #2C4D11",
"Z  c #28481C",
"A  c #364B15",
"S  c #2E5216",
"D  c #335212",
"F  c #3A5512",
"G  c #3D5C13",
"H  c #37511B",
"J  c #3D620E",
"K  c #3C621B",
"L  c #1E4328",
"P  c #1C4332",
"I  c #1B443C",
"U  c #1F4838",
"Y  c #234828",
"T  c #325C2C",
"R  c #3B5828",
"E  c #234C37",
"W  c #28563A",
"Q  c #385E37",
"!  c #30532B",
"~  c #3C672B",
"^  c #386833",
"/  c #454B0E",
"(  c #55430D",
")  c #48570F",
"_  c #4A4A15",
"`  c #534A13",
"'  c #415C12",
"]  c #475916",
"[  c #585617",
"{  c #625117",
"}  c #46650E",
"|  c #4C740F",
" . c #446314",
".. c #4A6C15",
"X. c #436917",
"o. c #536B13",
"O. c #546614",
"+. c #4D7212",
"@. c #4C781A",
"#. c #547512",
"$. c #537C13",
"%. c #597816",
"&. c #69731B",
"*. c #4B5824",
"=. c #5C5E29",
"-. c #575735",
";. c #4E4F32",
":. c #6B4225",
">. c #774829",
",. c #695725",
"<. c #78572D",
"1. c #785432",
"2. c #6E5036",
"3. c #596528",
"4. c #497625",
"5. c #567829",
"6. c #486638",
"7. c #526834",
"8. c #76692C",
"9. c #746538",
"0. c #6E7028",
"q. c #4E1651",
"w. c #52294D",
"e. c #671471",
"r. c #732379",
"t. c #5E1067",
"y. c #1C4D45",
"u. c #1F514A",
"i. c #2A5B42",
"p. c #25574B",
"a. c #245B53",
"s. c #265C55",
"d. c #335A42",
"f. c #28635B",
"g. c #30664A",
"h. c #296861",
"j. c #485845",
"k. c #586949",
"l. c #4F684C",
"z. c #6C724B",
"x. c #74786A",
"c. c #862613",
"v. c #85381D",
"b. c #854727",
"n. c #86552E",
"m. c #875A34",
"M. c #955B35",
"N. c #8D4E31",
"B. c #8F6437",
"V. c #926434",
"C. c #97683A",
"Z. c #897537",
"A. c #9D743B",
"S. c #99783B",
"D. c #82702A",
"F. c #A26B3C",
"G. c #A27C3D",
"H. c #A3763D",
"J. c #976743",
"K. c #9D7346",
"L. c #957E4A",
"P. c #A77945",
"I. c #B27E48",
"U. c #A6744E",
"Y. c #804060",
"T. c #865746",
"R. c #558115",
"E. c #5A8315",
"W. c #5D8C15",
"Q. c #56831A",
"!. c #5B881A",
"~. c #648617",
"^. c #649415",
"/. c #6A9D16",
"(. c #64931A",
"). c #679918",
"_. c #6A9B18",
"`. c #699516",
"'. c #6DA116",
"]. c #6DA118",
"[. c #72A818",
"{. c #6A893D",
"}. c #5C8E26",
"|. c #748F4C",
" X c #7B8762",
".X c #868924",
"XX c #A5813E",
"oX c #A9813F",
"OX c #9FA022",
"+X c #AC8442",
"@X c #AF8946",
"#X c #A98847",
"$X c #B28A46",
"%X c #B58C49",
"&X c #B98E4B",
"*X c #B58549",
"=X c #BB924D",
"-X c #B3924D",
";X c #B68757",
":X c #BC9451",
">X c #BD985B",
",X c #A9865E",
"<X c #BB9B67",
"1X c #AC8E67",
"2X c #928B50",
"3X c #C39A55",
"4X c #C99E57",
"5X c #C39B5A",
"6X c #C29751",
"7X c #C68F4F",
"8X c #CBA25D",
"9X c #C6A05F",
"0X c #C39A63",
"qX c #C39A66",
"wX c #CDA564",
"eX c #C7A469",
"rX c #D3AD6D",
"tX c #D5AB66",
"yX c #CDA876",
"uX c #D1AD72",
"iX c #D4B174",
"pX c #D9B474",
"aX c #D5B37B",
"sX c #D9B67B",
"dX c #DCB97E",
"fX c #761E81",
"gX c #7A2385",
"hX c #C97782",
"jX c #DDBB83",
"kX c #DEBE8A",
"lX c #E1BE83",
"zX c #E0BF89",
"xX c #E4C38D",
"cX c #E1C087",
"vX c #E6C792",
"bX c #E9CB99",
"nX c #E8C995",
/* pixels */
"                                                                                                                                ",
"                                                                                                                                ",
"                                                                                                                                ",
"                                                                                                                                ",
"                                                                                                                                ",
"                                                                                                                                ",
"                                        s.p.U E i.f.f.                                                                          ",
"                                    u.i.~ 4.Q.W.Q.}.4.~ W p.                                                                    ",
"                                    ~ Q.^.~.E.R.).[.).[.).@.T p.        *XP.                                                    ",
"                                  R.%.` 0 d d 0 ( [ #.^.[./.^.4.g.u.  B.I.1.      C.B.                                          ",
"                                o.0 u N.I.*XP.F.M.v.i 0 O.W.[._.3.j.s.z.*X1.      F.1.                                          ",
"                              b r C.yX8X3X:X%X+X%X@X*XM.u ( `./.~.<.-.2.7X1.  P.1.P.                                            ",
"                              4 C.pXlX8X$X+XA.      $X@X*Xb.d O.o.8.C.m.*Xm.K.B.1.K.  C.                                        ",
"                            % e Z.L.#X$X@X+X            %X+XC.i ) &.,.1.I.K.:.m.m.M.1.j.p.p.a.f.                                ",
"                            % B.3XeX2XZ.+XH.          $.    =XC.w ' R.[ P.P.    >.n.! T 4.4.~ Q p.f.a.                          ",
"                            > A.$XrXsX#X0._           {.5.  0.S.n.q $.%.<.9.f.  :.,.W.)./.[.[.].!.T p.a.                        ",
"                              $X$X5XuXsX<Xe M         z.5. .g l Y.w.] J %.~.S   [ %.'.].)./.).^./.W.@.W                         ",
"                              Z.&X8XxXvXyXr - J       m C Z w.r.gXgXw.>  .^.| c E.%.-.(.'.%.[ ` _ ) o.K E                       ",
"                              [ +X%XwXaXjXJ.& v J   +.7.R V q.e.fXr.-.+.$.W.^.+.+.;.w.+.) p v.N.b.b.s ` Y                       ",
"                                +X&X8XxXbXqXw b m M   ;.B *   t.t.g ^.W.$.].'././.3.w.e p F.+X4X$X+XG.b.8                       ",
"                                [ $X&XwXuXaXJ.9  .+.M = c x     t.g ~.~.m ' %.^.^.W.; z F.H.C.=X%XoXXXS.r %                     ",
"                                D 8.=X%XrXbXaXk 9 D v c C C       f .XOXO.M 0 /  ./ q V.XX  y :X%XD.8.0.8.5                     ",
"                  |.Q.          G F S.=X=XuXiXqXb.8 = c c *         &..X0.3.#.#.#./ <.=X    5 ,.9.1X5X$X+Xw                     ",
"                @.k. .$.$.5.    M D > S.&X$XwXxXqXN.t A n Y a.s.f.u.u.R D.T.] $.^.&.Z.      - { >XaXwX%X&X1.                    ",
"              v X.S V D v 7.{.J }  .*   $X+X$X:XiXkXK.i / D T T ! H X.G o.9.*. .$.%.A c m v & b.tXvXlX4X$Xm.                    ",
"                k.R x *.*.A X.E.$.M 3.uXeXP.$X$X5XsXrXI.u 8 b } } } } M b Z.hXz.D M *     * & b.8XaXiX5X$X+X                    ",
"                  =.-.1X;XL.=.] ' *.<XnXzXaX>X+X+X$X5XsX0XJ.:.r 9 0 8 q :.Z.1XU.*.        O & >.pXxXlX8X%X+X                    ",
"                b.k w w t i u a >.P.jXjXvXnXjX5X=X%X$X$X%X8XwX%X;X;XI.0X=XXX0.o.      R.W.m 4 A.rXkXiX=X+X                      ",
"              i 4 , * * x * * > & q :.K.yXjXvXvX9X$X+X$X$X+X+X$X%X%X%X$XXX+XA ..+.+./.W.+.9 k wXvXxXtX=X+X                      ",
"            X & * C C V V C x x O O * $ e 1.<XkXsXpX3X+XG.oX$X+X+XP.8.` A c * v }  .n $ . k >XiXkXsX5X+X                        ",
"            X * V C V x x : + < < + + @ @ o , :.,XxXiX5X6X+X+X+X+XC.j q & & , % % . . w m.5XcXvXkXtX=XZ.                        ",
"            $ * * V x * < 2 1 I I       1 # # o . 2.K.sXpX3X=X+XoX+Xz.j.;.>.y q j 2.K.0XsXxXsXiXwX$X8.] F                       ",
"            * * : : * + 1 1                           :X5X<X Xk.z.l.p.E Q 6.Q Q 6.d.z.1X<XsXpX8X=X8.v  .F                       ",
"            c x * * @ P + O                               l.a.g.^ 4.Q.(.Q.$.E.%.O.] H H 9.-X%XG.    c G m         $.            ",
"            v C x * + P : *                         s.a.p.T @.!./._.^.~.{ 0 d p c.c.c.p a a a       B ..W.W.    E.F z.          ",
"            c G G D Z I L x                       a.i.~ Q.W./.).~.O.d s N.K.;XqX0X0XqXyXyX;XM.k 6     c 7.|.+...G x R           ",
"              D .... .E E X.D                 h.a.^ Q.'.)./.#.( i k J.5XwX5X:X4X4X4X3XpXvXnXlXkX1Xu           * V * F n         ",
"              n $.$.R.X.T W ! ~ Y       p.p.i.^ @./.).^.E.[ i b.A.@X=X&X$X+XoX$X$X+X+X&X8XdXzXbXnX<Xm.          c k.k.          ",
"                G $.^.^.W.@.T i.W i.W i.T 4.Q.'./._.W.) t s C.$X%X+X+X%X%X$X$X&X%XP.+X%X$X=XdXbXxXvXjX        x.c               ",
"                b ..^.^./.^.^.Q.Q.Q.Q.(./.'./.^.E.O.e a M.+X+X%X%X$XoX+X          q r >.C.%X5XsXjXvXvX>X                        ",
"                  & ' W.^.)./.).^.'./././.$.#._ 8 y n.+X%X%X+X$X                      % ; n.+XwXvXbXvXeX                        ",
"                    4 9 / O.o.W.W.^.E.) _ 8 w :.C.+X+X$X=X+X                            o & M.8XxXvXxXjX                        ",
"                      >.:.a y t 8 8 w a >.V.H.+X%X%X+XA.-.I y.I P Y +                   O = y %XiXxXbXaX                        ",
"                            C.V.V.C.A.G.+X+X+XG.        y.U Y V v C c v                 x * 5 I.xXbXxXeX                        ",
"                                                    x L P V C B = , > C c             v C V 5 P.cXjXsXwX                        ",
"                                                  x C Z P V $ q >.>.u & c c         N v * x 4 P.cXvXlX3X                        ",
"                                                  x D C Y Y : ,.@X=X*Xk & : +   P B D D C x 5 ;XvXjX3XG.                        ",
"                                                  * v v C Y L < E ;.Z.9.3 < Y Y F G F v S b y qXwX=X+X                          ",
"                                                    * D F F F D S Z A _ Z D G F ' F S x - w U.rX=X$X                            ",
"                                                    O x G  ... .G  . .F  .F  . .G C B - u P.5X+X                                ",
"                                                        B D  .'  . . . .' F G v c - 8 >.+X%X$X                                  ",
"                                                          * x c D D S C C c > ; 8 a V.XX                                        ",
"                                                              $ $ % , e ; & r j                                                 ",
"                                                                      A.y X                                                     ",
"                                                                    $Xn..                                                       ",
"                                                                    H.6                                                         ",
"                                                                  +X>.X                                                         ",
"                                                                  G.u                                                           ",
"                                                                  A.w                                                           ",
"                                                                    :.7                                                         ",
"                                                                    m.6                                                         ",
"                                                                      :.                                                        ",
"                                                                                                                                ",
"                                                                                                                                "
};
