/* XPM */
static char *ee42ac555fc34481df2fd65c899bad8dLkVzGDyjtehEKZns[] = {
/* columns rows colors chars-per-pixel */
"64 64 238 2 ",
"   c #39190B",
".  c #1F340C",
"X  c #1E3918",
"o  c #282A0B",
"O  c #36280B",
"+  c #2A350D",
"@  c #233B0D",
"#  c #38350D",
"$  c #382A13",
"%  c #233C12",
"&  c #373911",
"*  c #1D3B24",
"=  c #243028",
"-  c #4F1A0B",
";  c #691D12",
":  c #4C2B0D",
">  c #59290F",
",  c #46350E",
"<  c #5B340E",
"1  c #472A16",
"2  c #572814",
"3  c #483915",
"4  c #583615",
"5  c #662B17",
"6  c #782B14",
"7  c #6F3316",
"8  c #673319",
"9  c #4D372D",
"0  c #693A22",
"q  c #743822",
"w  c #603E3F",
"e  c #25430E",
"r  c #2B450E",
"t  c #2C4B0E",
"y  c #384A0C",
"u  c #39560E",
"i  c #264610",
"p  c #294511",
"a  c #2C4C12",
"s  c #284817",
"d  c #364A17",
"f  c #2E5214",
"g  c #335212",
"h  c #3A5512",
"j  c #3C5C13",
"k  c #385819",
"l  c #3E610E",
"z  c #3D631A",
"x  c #1E4326",
"c  c #1C4536",
"v  c #244726",
"b  c #2D552A",
"n  c #355B2A",
"m  c #244D35",
"M  c #2B5839",
"N  c #395E36",
"B  c #3B672B",
"V  c #2F603B",
"C  c #386736",
"Z  c #454B0E",
"A  c #55430D",
"S  c #48570F",
"D  c #494615",
"F  c #554915",
"G  c #455916",
"H  c #575715",
"J  c #665019",
"K  c #46650E",
"L  c #49700F",
"P  c #446314",
"I  c #466816",
"U  c #456B1B",
"Y  c #546914",
"T  c #4C7213",
"R  c #4B751C",
"E  c #527C13",
"W  c #577815",
"Q  c #69731B",
"!  c #5D4823",
"~  c #515430",
"^  c #6D4725",
"/  c #784628",
"(  c #665924",
")  c #77572C",
"_  c #6C5136",
"`  c #745935",
"'  c #466B26",
"]  c #586726",
"[  c #467022",
"{  c #4B7927",
"}  c #577926",
"|  c #40653F",
" . c #586837",
".. c #487732",
"X. c #6B6E2B",
"o. c #76692C",
"O. c #766735",
"+. c #7B7A36",
"@. c #531B55",
"#. c #522B4B",
"$. c #64176D",
"%. c #732379",
"&. c #295A46",
"*. c #2D5B49",
"=. c #2E6348",
"-. c #346846",
";. c #3D764A",
":. c #316A55",
">. c #485845",
",. c #547448",
"<. c #6E6E4C",
"1. c #852D17",
"2. c #854727",
"3. c #87542E",
"4. c #8D4E31",
"5. c #885832",
"6. c #955B35",
"7. c #836D2B",
"8. c #8A6836",
"9. c #966838",
"0. c #887736",
"q. c #9A783C",
"w. c #A26A3B",
"e. c #A3783D",
"r. c #834C53",
"t. c #976743",
"y. c #9C7746",
"u. c #957E4A",
"i. c #A87845",
"p. c #A6744E",
"a. c #B27E48",
"s. c #5A8315",
"d. c #5D8C15",
"f. c #56831B",
"g. c #5A8719",
"h. c #648718",
"j. c #649415",
"k. c #6A9D16",
"l. c #659519",
"z. c #6A9B18",
"x. c #6DA117",
"c. c #72A818",
"v. c #558426",
"b. c #598926",
"n. c #5C8B2B",
"m. c #5E922C",
"M. c #5B8737",
"N. c #568C36",
"B. c #67872D",
"V. c #62962C",
"C. c #649B2D",
"Z. c #688837",
"A. c #7A8A36",
"S. c #639736",
"D. c #679E32",
"F. c #689E32",
"G. c #7A9535",
"H. c #6BA42A",
"J. c #6AA234",
"K. c #6EA935",
"L. c #6AA53B",
"P. c #71AD37",
"I. c #72AF38",
"U. c #7AA839",
"Y. c #75B339",
"T. c #75B439",
"R. c #78B73A",
"E. c #7BBC3C",
"W. c #7FC13D",
"Q. c #4B8547",
"!. c #508C49",
"~. c #6A8946",
"^. c #6D9048",
"/. c #6BA543",
"(. c #77B842",
"). c #7B8762",
"_. c #858B26",
"`. c #8B863A",
"'. c #948B3C",
"]. c #899B3B",
"[. c #95943D",
"{. c #A6833F",
"}. c #86AA3C",
"|. c #95A334",
" X c #84B63D",
".X c #81C53F",
"XX c #84C83F",
"oX c #969046",
"OX c #9A9541",
"+X c #AC8442",
"@X c #A68B45",
"#X c #AB8A44",
"$X c #B28A46",
"%X c #B58549",
"&X c #B58D49",
"*X c #B98E4B",
"=X c #A59444",
"-X c #B6934B",
";X c #BB924D",
":X c #B68757",
">X c #A79258",
",X c #BD9856",
"<X c #9AA342",
"1X c #89B846",
"2X c #A8B053",
"3X c #AC8F66",
"4X c #BA9A68",
"5X c #A2AD65",
"6X c #C68F4F",
"7X c #C39A55",
"8X c #C79D56",
"9X c #C39C5A",
"0X c #C6A05F",
"qX c #CBA25D",
"wX c #C39A64",
"eX c #CDA564",
"rX c #C5A468",
"tX c #D4AD6B",
"yX c #CDA876",
"uX c #D2AD71",
"iX c #D4B174",
"pX c #D8B57A",
"aX c #D9B67B",
"sX c #83C740",
"dX c #84C940",
"fX c #88CF42",
"gX c #8BCC4A",
"hX c #8AD243",
"jX c #761E81",
"kX c #7A2385",
"lX c #C97782",
"zX c #DDBB83",
"xX c #DEBE8A",
"cX c #E1BE85",
"vX c #E1C087",
"bX c #E4C38D",
"nX c #E6C792",
"mX c #E8CA97",
/* pixels */
"D.D.D.D.D.J.P.P.J.D.D.J.P.P.J.D.D.D.D.J.P.Y.E.E.E.R.J.D.D.J.P.P.J.J.R.E.E.E.sXdXdXsXE.E.E.E.E.E.Y.Y.Y.P.F.D.D.D.D.D.D.D.D.D.D.D.",
"D.D.D.D.J.J.Y.Y.J.J.D.J.P.P.J.J.J.J.J.J.P.I.R.R.R.T.J.J.J.J.P.P.J.J.R.E.E.W..XsXsX.XR.R.R.R.R.R.Y.Y.P.P.F.D.J.J.J.J.J.J.J.J.D.D.",
"D.D.D.J.W..X.X.X.XW.J.J.P.Y.R.R.R.R.R.T.J.J.J.J.J.J.dXfXY.P.J.J.T.R.E.E..X.XE.E.E.R.J.J.J.J.J.J.P.P.J.J.D.J.E..X.X.XR.R.R.T.J.D.",
"J.J.D.J.W..XdXdX.XW.J.J.Y.T.E.E.E.E.E.R.J.F.J.J.J.J.fXfXY.P.J.J.R.E.E.E..X.XE.E.R.T.J.J.J.J.J.J.Y.I.J.D.J.J..XsXdXsXW.W.E.R.J.J.",
"R.T.J.D.J.K..X.XJ.J.W..X.X.X.XsXsX.XT.I.J.J.T.R.R.R.E.E.J.J.P.Y..XsXsX.XT.T..X.XJ.J.P.I.R.R.R.R.E.R.J.J.T.R.E.E.sXdXhXhXE.E.R.R.",
"E.R.J.J.J.J.W.W.J.J.W..XdXdXdXdXsX.XT.P.D.D.P.I.L./.R.R.J.J.I.T..XsXsX.XT.T.XX.XJ.J.P.Y.R.R.R.R.R.T.J.J.T.R.E.E..XdXhXhXW.E.R.R.",
"E.E..XW.Y.P.Y.Y.J.D.J.K..XdXdXsXE.E.R.N.:.;.M V &.:.Q.!.!./.R.E.E.E.E.E..X.XdX.XJ.D.J.J.J.J.J.J.J.J.P.P.J.J.R.E.E.E.E.W..X.XJ.J.",
"E.E.sX.XY.Y.P.P.J.J.J.J..XsXsX.XE.T.Q.-.B { f.d.f.n.{ B M *.Q.Y.E.E.E.E.}. XdX.XJ.J.J.J.J.J.J.J.J.J.Y.P.J.J.T.R.R.R.R.R..XW.J.D.",
"E.E.sX.XT.P.J.J.T.R.R.R.E.E.E.E.E.S.B f.j.h.s.s.l.c.z.c.l.R n -./.Y.E.].%X'.E.E.R.R.R.R.R.R.R.E.fXfXT.I.P.P.J.J.Y.Y.J.J.Y.Y.J.D.",
"E.W..XW.T.Y.J.J.R.E.E.E.E.E.E.E.K.g.W A < 8 8 < A H T j.c.k.j.{ :.=.!.0.a.+.E.E.Y.].`.Y.E.E.E.E.hXfXT.Y.I.P.J.J.P.P.J.J.P.P.J.D.",
"hXfXK.J.W..XR.R..XsXsX.XE.E.E.P.W 4 7 4.a.*Xi.w.6.1.5 < Y d.c.z.] >.:.<.*XA.XX.XG.w.o.Y.E.E.E.E.E.E.E.R.J.J.P.P.J.J.P.P.Y.P.J.D.",
"hXdXJ.J..X.XE.E..XsXdXsXE.E.E.R 4 9.yXqX7X;X&X=X=X#X%X6.7 A l.k.h.) >.` 6XA.<XOXA.i.A.E.E.E.E.E.E.E.E.R.J.J.Y.Y.J.J.P.P.P.P.J.J.",
"J.J.P.Y.E.E.E.E.E.W.sXdXsXsXT.3 9.pXcXqX$X+X[..X.X1X<X=X%X2.< K Y O.9.5.%X8.e.`.+.y.A.`.Z.L.Y.E.E.E.E.E.R.R..X.X.XW.J.J.J.J.P.P.",
"D.J.P.Y.E.E.E.E.E.E..XsXsXW.U 3 0.u.@X$X$XOX XsXdXdXfX X<X#X9.5 S Q ( ) a.y.O.8.8.6.` >.&.=.,.,./.(.(.E.E.E..XsXsX.XJ.J.J.J.P.P.",
"D.J.P.Y..XsXsX.XE.E.E.E.E.D.# 8.7XrXoX0.+X[.E.E.dXfXE.H.C.G.-X9.2 S s.H i.oXI.G.) 5.N b [ [ B V =.:.;.L.E.E.E.E.E.E.R.R.I.P.J.J.",
"J.J.P.Y..X.XdXsXW.E.E.E.E.C.G q.$XtXpX@Xo.} R.E..XdXJ.Z.B.b.X.q.3.1 E W ) O.!.U.^ ( d.z.k.c.c.x.f.n &.Q.E.E.E.E.E.E.R.R.Y.P.J.J.",
"P.P.Y.Y.Y.T..XdXsXsXsXsXsXT.v.=X$X9XuXpX4X3 v.T.E.E.J.~.} P 9 w r.#.G l W h.v.n.H W x.x.z.k.z.z.k.d.R V !.E.E.E.E.R.J.J.P.Y.R.R.",
"P.P.P.P.I.Y..XdX.X.X.X.XdX.Xm.`.*XqXbXnXyX4 h b.T.E.V.j a s @.%.kXkX#.@ P j.g.g s.W ~ l.x.W H F D S Y z V S.R.R.E.R.J.J.I.Y.E.E.",
"J.J.J.J.P.Y..X.XP.K.J.J..XdXT.B.#X&XeXpXzXt.3 } b.V.W  .n p #.%.jX%.~ T E d.j.T T ~ #.T S 6 1.4.2.2.q A v ..J.J.Y.I.J.J.T.E.hXhX",
"J.J.J.J.Y.T.W.W.P.m.J.K..XXXW.V.'.*XqXbXmXwX2 G T T n.M.p k ,.$.$.9 j.d.E x.x.k.k.] @.3 6 w.+X8X$X+Xe.2.: { D.J.I.Y.J.J.E.W.hXhX",
"R.R.R.E.fXfXK.J.R.K.I.fXW.R.J.b.X.$X&XeXuXpXt., P T T U r g J.<.@.9 h.h.j G W j.j.d.$ ; w.q.8.;X&X{.{.q.4 G n.J.R.E.R.E.hXhXW.E.",
"R.R.E.E.fXdXJ.J.P.H.V.J.P.Y.m.U P o.;X&XtXmXpXq , g t r a a C.Y.~. ._.|.Y u < Z P Z 1 6.[.B.8 ;X&X7.X.o.o.4 { v.T.E.E.W.hXhXW.E.",
"J.J.R.R.K.J.F.D.S.^.g.n.b.v.v.n.U h q.;X;XuXiXwX2.: p g t k D.I.S.J.G._.Q ] W T W Z ) =XU.P.4 ) +.>X9X$X+X8 F.C.C.E.hXhXhXhXE.E.",
"D.J.T.T.J.D.D.n.v.,.P E f.} M.D.P g p `.*X$XeXbXrX4.< d j B ,.;.:.-.=.N 7.r.G E j.Q 0.B.J.J.G ! ,XpXeX&X*X` J.R.b.R.hXhXhXhXE.E.",
"D.D.J.J.D.D.D.U ' f i g t  .Z.v.I P k U.<X#X$X;XiXxXt.5 Z g n n b f U P Y O.~ P E W G R v.R O 2.tXnXcX8X$Xo.J.E.D.I.E.W.hXhXE.E.",
"D.D.J.J.J.J.J.D.,.n a ] G d U s.s.g  .rX2XOX$X$X9XpXtXa.7 : y K I K K u y 0.lX<.g u P J.C.g # 2.qXpXiX7X$XOXR.E.D.I.E.E.fXfXE.R.",
"D.J.P.Y.W..X.X.XP.]  .3X:Xu.( G G G 4XmXcXiX,X+X+X$X9XpXwXt.^ 4 , 4 : 1 ^ 0.:Xp.B.V.C.F.J.z O / iXbXcXqX&X<XE.Y.C.R.E.E.T.Y.J.J.",
"J.J.P.Y..X.XdX X7./ 2 2 > 5 7 8 / i.zXzXnXmXzX9X;X&X$X$X&XeXeX&X:X:Xa.wX;X{.X.Y C.R.C.b.l.I - q.tXzXiX*X+X}.E.T.R.E.R.R.Y.P.J.J.",
"P.P.I.Y.Y.T.E.^ - + @ @ e @ @ + O 1 ^ t.yXzXnXbX0X$X+X$X$X+X+X$X&X&X&X$X{.<XU I E f.k.d.T , q eXnXbXtX;X=XE.E.E.E.R.J.J.P.Y.R.R.",
"P.I.P.P.I.Y.] O @ a a i i a e e @ @ @ o 1 ` 4XxXpXiX7X+Xe.{.$X+X+Xi.7.F G { k t I P g o   q ,XiXzXpX7X+X].R.R.R.E.R.J.J.I.Y.E.E.",
"F.J.J.J.P.V.o @ i a i e i % X * * X X X X . O ! 3XbXiX9X7X+X+X+X+X8.0 1 O O + o o     2 5.9XvXnXzXtX;X0.B.J.J.J.Y.I.J.J.T.E.hXhX",
"J.J.J.J.Y.v.o @ @ i e @ * m C M N ..N.....n B k 3 ` y.pXiX7X;X+X{.+X<.>.~ ^ 8 1 0 _ y.wXpXbXpXiXeX&Xo.G [ F.D.J.I.Y.J.J.E.W.hXhX",
"R.R.R.E.fXJ.e @ @ % @ X * ' J.m.J.P.J.J.J.J.I.I.D.n.B.2X,X,X).,.<.,.*.m N | N N | *.<.3XwXpXiXqX;Xo.r P R P.F.J.R.R.R.E.hXhXW.E.",
"R.R.E.E.fXR.g e @ @ X c X U J.J.P.P.J.J.D.J.P.P.F.J.W.(./.,.*.=.C [ f.l.f.E s.W Y G h Z O.-X&X'.G.{ r j R J.J.J.T.C.H.E.hXhXE.E.",
"J.J.R.R.K.D.j a e @ X c X g V.F.P.Y.P.K.F.D.J.J.D.S.Q.-.=.n R g.z.z.j.h.H < 5 6 1.1.1.6 8 8 J } D.[ p I d.j.H.H.l.j ^.gXhXhXE.E.",
"D.J.T.T.J.D.P j j g s c x r [ J.I.Y.Y.I.J.J.J.S.Q.;.&.B f.d.k.z.h.H 8 7 4.i.:XwXwXwXwXyXyX:X6.^ ! } [ R Z.^.T L j e n (.hXhXE.E.",
"D.D.J.J.D.D.{ h T I P m m U k v.T.E.E.E.fXsXL.Q.*.C g.x.z.k.W A > q t.9XeX9X;X8X8X8X7XpXnXmXcXxX3X0 B.R.1X5X} p p g j v.hXhXE.E.",
"D.D.D.D.D.D.V.z E E s.U n M b B ..S.S./.Q.!.-.C R k.z.j.s.H 5 / q.$X;X*X$X+X{.$X$X$X+X*XqXpXcXmXmX4X+.R.R.R.R.} r ~.~.J.fXfXE.R.",
"D.D.D.D.D.J.P.v.j E j.j.d.{ n &.M &.M -.n { f.x.k.z.d.S > q 9.$X&X+X+X$X&X$X$X;X&Xi.+X$X$X;XpXmXbXnXpX}.J.J.L.^.U V.J.J.J.J.J.J.",
"D.D.D.D.J.J.Y.P.U L d.j.k.j.j.f.f.f.g.l.k.x.k.j.s.Y 3 8 6.+X+X$X&X#X[.[.}. X X1X}.X.! ^ 9.$X9XpXzXmXnX>XF.D.J.J.J.J.J.J.J.J.D.D.",
"D.D.D.J.W..X.X.XJ.& S d.j.z.k.z.j.x.k.k.k.E W D : 8 3.i.$X&X+X=X]. XE.E..X.XE.E.E.R.n.d $ 3.+XeXnXmXnXrXG.J.W..X.X.XR.R.R.T.J.D.",
"J.J.D.J.W..XdXdX.XC.3 , Z Y Y d.d.j.s.S Z : 2 / 9.+X+X$X*X[.Z...S.L.E.W..X.XE.E.R.T.J.n.@ O 6.qXbXnXbXzXOXJ..XsXdXsXW.E.E.R.J.J.",
"R.T.J.D.J.K..X.XJ.J.U.+.) 8 5 > : : 2 8 / 9.e.+X$X&X=X].Z.C M c m b ..R.T.T.sXW.J.J.P.J.p + 5 &XiXbXmXpX].R.E.E.sXdXhXhXE.E.R.R.",
"E.R.J.J.J.J.W.W.J.J.W.sX X|.'.0.8.9.q.e.{.#X{.'.].}.P.{ &.c v s r a t z m.T.sX.XJ.F.P.n.p @ - a.bXmXbXrX}.R.E.E..XdXhXhXW.E.R.R.",
"E.E..XW.Y.P.T.Y.J.D.J.K..XdXXX.X X}.}.}.U.U.J.J.R.J.j v c s a p + # + a g V.dX.XJ.S.n.j a i - i.cXzXpXeX].J.R.E.E.E.W.W..X.XJ.J.",
"E.E.sX.XY.Y.P.P.J.J.J.J..XsXsX.XE.E.E.E.R.T.J.J.P.z a s c i o 1 ^ / 5 O r j T.E.S...s r @ e - i.vXnXcX,XG.J.T.R.R.R.R.R..XW.J.D.",
"E.E.sX.XY.P.J.J.T.R.R.R.E.E.E.E.E.E.hXfXJ.J.T.R.m.r g a v v % ( =X*X%Xq O % ' N.b a g g a e - :XnXzX7X'.P.P.J.J.Y.Y.J.J.Y.Y.J.D.",
"E.W..XW.T.Y.J.J.R.E.E.E.E.E.E.E.E.E.hXfXK.J.E.E.J.g r t a v x v C  .0.O.= * v v k j h r f y 5 wXeX;X=XU.I.P.J.J.P.P.J.J.P.P.J.D.",
"hXfXK.J.W..XR.R..XsXsX.XE.E.E.E.E.E.W.W..X.XXX.XE.n.@ g j j h g f f d D s g j h G h g e & 2 p.tX;X=X XR.J.J.P.P.J.J.P.P.Y.P.J.D.",
"hXdXJ.J..X.XE.E..XsXdXsXW.E.E.E.R.R.E.E..X.XdXsXE.R.[ p j I I P j I I h G h P P j a p # 8 i.9X=X].E.E.R.J.J.Y.Y.J.J.P.P.P.P.J.J.",
"J.J.P.Y.E.E.E.E.E.E.sXdXsXsXsX.XJ.J..X.XJ.J..XdXsXsX.Xb.g g P G P I P P G h j t r # : / +X-X<X XE.E.E.E.R.R..X.X.XW.J.J.J.J.P.P.",
"D.J.P.Y.E.E.E.E.E.E..XsXsXXX.XW.J.J.W.W.J.J..XsXdXdXdXdXD.z r r g g f a a r % $ 1 0 8.[.].U.E.E.E.E.E.E.E.E..XsXsX.XJ.J.J.J.P.P.",
"D.J.P.Y..XsXsX.XE.E.E.E.E.R.J.J.T.T.J.J.T.R.E.E.dXfXhXfXK.J.V.[ d d d 3 $ $ ! o.G.}.J.J.I.Y.E.E..XsXsX.XE.E.E.E.E.E.R.R.I.P.J.J.",
"J.J.P.Y..XXXdXsXW.E.E.E.E.R.J.J.E.E.J.J.R.E.E.E..XdXhXfXJ.J..XdXE.E.}.q.5 G .XsX.XW.J.J.Y.T.E.E..XsXsX.XE.E.E.E.E.E.R.R.Y.P.J.J.",
"P.P.Y.Y.Y.T..XdXsXsXdXdXsX.XR.R..XsX.X.XE.E.E.E.E.E.E.E.R.R..XsXE.R.=X3.$ J.dX.XJ.J.W..X.X.XE.E.E.E.E.E.E.E.E.E.E.R.J.J.P.Y.R.R.",
"P.P.P.P.I.Y..XdX.X.X.X.XdXsXE.E..X.XsX.XE.E.E.E.E.E.E.E.E.E..X.XR.].e.2 v..XsX.XJ.J..XdXdXsXW.E.E.E.E.E.R.R.R.R.E.R.J.J.I.Y.E.E.",
"J.J.J.J.P.Y..X.XT.Y.J.J..XdXsX.XJ.J.E.E.E.E.E.E.E.E.E.E.E.E.E.R.J.'./ D P.T.E.E..X.XdXdXdXdXsX.XE.E.E.R.J.J.J.J.Y.I.J.J.T.E.hXhX",
"J.J.J.J.Y.T.W.W.T.Y.J.K..X.X.XW.J.J.T.R.R.R.R.R.R.R.E.E.E.E.E.R.J.'.7 } Y.Y.E.E..XsXsXsXsXsXsX.XR.R.E.R.J.F.D.J.I.Y.J.J.E.W.hXhX",
"R.R.R.E.fXfXK.J.R.E.fXfXW.R.J.J.P.P.J.J.J.J.Y.Y.J.J..XsXsXsXsX.X.X[.2 B.E.E.E.E.E.E.E.E.E.E.E.R.J.J.Y.Y.P.P.F.J.R.E.R.E.hXhXW.W.",
"R.R.E.E.fXdXJ.J.T.E.fXfXE.T.J.J.P.P.J.J.D.J.P.P.F.J.W..X.X.X.X.X.X}.^ ( R.R.R.R.R.R.R.R.R.R.R.T.J.J.P.P.Y.P.J.J.R.E.E.W.hXhXW.E.",
"J.J.R.R.K.J.F.D.J.J.J.J.J.J.D.J.P.Y.P.P.F.D.J.J.D.J.Y.Y.J.J.Y.Y.J.K.0.! J.J.Y.I.J.J.J.J.I.I.J.J.D.D.J.J.P.Y.R.R.E.E.hXhXhXhXE.E.",
"D.J.T.T.J.D.D.D.D.D.D.D.D.D.D.J.Y.Y.Y.Y.J.J.J.J.J.J.Y.Y.J.J.P.P.J.J.}.( n.J.P.P.J.J.D.J.Y.Y.J.J.J.J.J.J.I.Y.E.E.E.E.hXhXhXhXE.E.",
"D.D.J.J.D.D.D.D.D.D.D.D.D.D.D.J.R.E.R.E.fXfXE.R.R.E.fXfXE.T.J.J.P.I.J.B.F.T.J.J.P.P.J.J.dXfXE.R.R.R.R.R.R.E.E.E.E.E.E.W.hXhXW.E.",
"D.D.D.D.D.D.D.D.D.D.D.D.D.D.D.J.R.E.E.E.hXhXE.E.E.E.hXhXW.R.J.J.P.P.J.J.R.R.J.J.P.P.J.J.hXhXE.E.E.E.E.E.E.E.E.E.E.E.E.E.hXhXE.E."
};
