/* XPM */
static char *c15f4f459c3c4ca1d5c98053c1021aa4Q4wZh4KnIKIx6n8J[] = {
/* columns rows colors chars-per-pixel */
"64 64 244 2 ",
"   c #1E0635",
".  c #230336",
"X  c #24023B",
"o  c #2C1337",
"O  c #1A2A27",
"+  c #2F5D35",
"@  c #30712D",
"#  c #447D3D",
"$  c #290841",
"%  c #320C4A",
"&  c #2F154B",
"*  c #371655",
"=  c #372757",
"-  c #332A50",
";  c #293259",
":  c #363458",
">  c #3A3264",
",  c #481C64",
"<  c #462B68",
"1  c #502D72",
"2  c #4D3775",
"3  c #3B4C56",
"4  c #355052",
"5  c #226942",
"6  c #37754B",
"7  c #324C67",
"8  c #3B5A76",
"9  c #3B7F6C",
"0  c #376578",
"q  c #4C7154",
"w  c #46466A",
"e  c #534F73",
"r  c #445876",
"t  c #64557B",
"y  c #476B79",
"u  c #586978",
"i  c #477176",
"p  c #666E7A",
"a  c #32963E",
"s  c #58962D",
"d  c #518C30",
"f  c #4C9739",
"g  c #599A37",
"h  c #619A2F",
"j  c #679E32",
"k  c #689F32",
"l  c #629A3A",
"z  c #5CA338",
"x  c #5DB13F",
"c  c #64A233",
"v  c #6AA233",
"b  c #6DA935",
"n  c #63AB3A",
"m  c #68A939",
"M  c #71AD37",
"N  c #72AF38",
"B  c #67B13B",
"V  c #6CB43C",
"C  c #74B137",
"Z  c #75B339",
"A  c #78B73A",
"S  c #76BA3C",
"D  c #7BBC3C",
"F  c #7EC13E",
"G  c #3B9554",
"H  c #2C8E60",
"J  c #3A8B68",
"K  c #399267",
"L  c #3B8776",
"P  c #3C9177",
"I  c #469747",
"U  c #599949",
"Y  c #4C8B54",
"T  c #479A5B",
"R  c #4BA24A",
"E  c #56A748",
"W  c #5EB344",
"Q  c #5DB14A",
"!  c #49A755",
"~  c #4EA45C",
"^  c #53A556",
"/  c #52B650",
"(  c #64AC46",
")  c #64B345",
"_  c #6BB844",
"`  c #74BB44",
"'  c #68B654",
"]  c #75BC52",
"[  c #478D65",
"{  c #459A65",
"}  c #43956C",
"|  c #479576",
" . c #4E9079",
".. c #53A96B",
"X. c #5CB87B",
"o. c #6AB36D",
"O. c #7CBB66",
"+. c #63AA7A",
"@. c #5ACD58",
"#. c #6CC64A",
"$. c #7BC243",
"%. c #79C348",
"&. c #7BC656",
"*. c #5AC76E",
"=. c #79C464",
"-. c #75C972",
";. c #81C53F",
":. c #83C83F",
">. c #80BC66",
",. c #82C740",
"<. c #84C940",
"1. c #88CF42",
"2. c #85CB4B",
"3. c #8AD243",
"4. c #82D14B",
"5. c #81C858",
"6. c #88D55B",
"7. c #82C96A",
"8. c #8BD275",
"9. c #8CD579",
"0. c #5E3388",
"q. c #6F3496",
"w. c #3B6D83",
"e. c #397887",
"r. c #574985",
"t. c #6C4E8B",
"y. c #6C4A9B",
"u. c #79549D",
"i. c #4E6485",
"p. c #556B8B",
"a. c #437C8B",
"s. c #477C88",
"d. c #587A8A",
"f. c #477990",
"g. c #6B738E",
"h. c #7847A7",
"j. c #8F50B1",
"k. c #9A6FBA",
"l. c #2E8780",
"z. c #3C8487",
"x. c #4B8789",
"c. c #578A8C",
"v. c #4B9889",
"b. c #57978B",
"n. c #498393",
"m. c #528694",
"M. c #5A8B95",
"N. c #4F9195",
"B. c #569796",
"V. c #5B9394",
"C. c #5E939A",
"Z. c #658A97",
"A. c #6B8D99",
"S. c #629295",
"D. c #64949B",
"F. c #68979A",
"G. c #5AA88A",
"H. c #56A693",
"J. c #6CAA8D",
"K. c #66A698",
"L. c #6AB495",
"P. c #77BA9A",
"I. c #6483A1",
"U. c #689BA4",
"Y. c #7699A4",
"T. c #59A0A3",
"R. c #6DA7AA",
"E. c #75A4AB",
"W. c #78A6A8",
"Q. c #79B7A9",
"!. c #79ACB3",
"~. c #76B5B1",
"^. c #72CD8F",
"/. c #7BC3AC",
"(. c #83BD9F",
"). c #8C9CAB",
"_. c #A59BB1",
"`. c #84AAAA",
"'. c #86ADB3",
"]. c #97ACBA",
"[. c #84B5B5",
"{. c #8DB3B5",
"}. c #8AB8BA",
"|. c #96B8BA",
" X c #A6ACB9",
".X c #85C68A",
"XX c #94D785",
"oX c #8AD590",
"OX c #96E289",
"+X c #8BCDAF",
"@X c #98D8AA",
"#X c #96C9BA",
"$X c #A3DEA9",
"%X c #98E3B4",
"&X c #A3E6A7",
"*X c #A8E6B8",
"=X c #B7EDBD",
"-X c #B386C8",
";X c #91B7C3",
":X c #97BCC3",
">X c #A1BAC5",
",X c #92C9C7",
"<X c #99C8C5",
"1X c #A7C7CA",
"2X c #B6CBCC",
"3X c #ABD2CC",
"4X c #B4D9C9",
"5X c #A8CDD1",
"6X c #BAC9D2",
"7X c #ACD9D3",
"8X c #B9D7D8",
"9X c #AEE8C7",
"0X c #B6EAC6",
"qX c #BAF2C3",
"wX c #B5E2D7",
"eX c #C6CFD7",
"rX c #C3D4D9",
"tX c #C3DBDB",
"yX c #CAE5DD",
"uX c #D4E4DD",
"iX c #CEF4D5",
"pX c #CCF5DB",
"aX c #D0DCE4",
"sX c #CDE5E3",
"dX c #CAE8E9",
"fX c #D3E5E4",
"gX c #D5E9E8",
"hX c #DDECEC",
"jX c #D8F8E5",
"kX c #DAF3ED",
"lX c #D7EDF1",
"zX c #DAF3F3",
"xX c #E2ECEB",
"cX c #E3F2ED",
"vX c #E9F7EE",
"bX c #F1FAEE",
"nX c #E9EEF3",
"mX c #E5F4F3",
"MX c #ECF6F2",
"NX c #EBFAF4",
"BX c #EBFAF7",
"VX c #F2F6F5",
"CX c #F3F9F3",
"ZX c #F6F8F7",
/* pixels */
"j j j j j v M M v j j v M M v j j j j v M C D D D A v j j v M M v v A D D D ,.<.<.,.D D D D D D C C C M v j j j j j j j j j j j ",
"j j j j v v C C v v j v M M v v v v v v M C A A A Z v v v c l l d j A D D D ;.,.,.;.A A A A A A C C M M v j v v v v v v v v j j ",
"j j j v F ;.;.;.;.F v v M C A A A A A Z v v v v v v <.1.m q e r.e q g D ,.,.D D D A v v v v v v M M v v j v D ;.;.;.A A A Z v j ",
"v v j v F ;.<.<.;.F v v C Z D D D D D A v k v v v v 1.$.q y.j.j.j.h.e d F ,.D D A Z v v v v v v C N v j v v ;.,.<.,.F F D A v v ",
"A Z v j v b ;.;.v v F ;.;.;.:.,.,.;.Z N v v Z A A A S q y.j.k.j.q.h.h.3 s Z ;.;.v v M N A A A A D A v v Z A D D ,.<.3.3.D D A A ",
"D A v v v v F F v v F ;.<.<.<.<.,.;.Z N v v Z A D D ] u y.j.-Xk.1 1 q.2 # Z :.;.v v M C A A A A A Z v v Z A D D ;.<.3.3.F D A A ",
"D D ;.F C M C C v j v b ;.<.<.,.D D D A A Z v v A S O.g.0.j.-Xk.1 % , < Y $.<.;.v j v v v v v v v v M M v v A D D D D F ;.;.v v ",
"D D ,.;.C C M M v v v v ;.,.,.;.D D D D A Z v v A ] L.g.< 1 u.y.* X % : | _ :.;.v v v v v v v v v v C M v v Z A A A A A ;.F v j ",
"D D ,.;.Z M v v Z A A A D D D D D D 3.1.v v A A C 7.}.I.= % % % X X % w G.) D D A A A A A A A D 1.1.Z N M M v v C C v v C C v j ",
"D F ;.F Z C v v A D D D D D D D D D 3.1.v v D D C =.R.d.< % . . . X & i.G.B D D D D D D D D D D 3.1.Z C N M v v M M v v M M v j ",
"3.1.b v F ;.A A ;.,.,.;.D D D D D D D F ;.;.:.;.D ` { s.y & $ . .   : i ~ $.:.,.,.;.D D D D D D D D D A v v M M v v M M C M v j ",
"3.<.v v ;.;.D D ;.,.<.,.F D D D A A D D ;.;.:.F S D ) 6 r w o   o - 3 6 _ ,.,.F :.,.D D D D D D D D D A v v C C v v M M M M v v ",
"v v M C D D D D D F ,.<.,.,.,.;.v v ;.;.v b ( Y + q oX[ 4 p e u e u 4 6 ^ oXY 6 U F <.;.D D D D D D D D A A ;.;.;.F v v v v M M ",
"j v M C D D D D D D ;.,.,.;.;.F v v F F b d q e - ).sX1Xi M.d.Z.d.Z.y x.R.yX Xt : d F ;.D D D D D D D D D D ;.,.,.;.v v v v M M ",
"j v M C ;.,.,.;.D D D D D A v v Z Z v v Z @ = < _.xX|.>XF.0 0 s.y w.s.m.E.8XaX X= O s v N C D D ;.,.,.;.D D D D D D A A N M v v ",
"v v M C ;.;.<.,.F D D D D A v v D D v v A U p _.6XfXkX2X{.c.0 7 0 s.s.W.sXzX|.1X_.q g v C Z D D ;.,.,.;.D D D D D D A A C M v v ",
"M M C C C Z ;.<.,.,.,.,.,.;.A A ;.,.;.;.D ] 4X8XS.8XNXNXNXrXF.a.s.S.{.xXZXlXF.{.dX.XF ;.;.;.D D D D D D D D D D D A v v M C A A ",
"M M M M N C ;.<.;.;.;.;.<.,.D D ;.;.,.;.D 9.jX8Xm.[.NXNXCXCXtX{.{.2XxXCXNX1XD.tXNX*X2.:.<.,.F D D D D D A A A A D A v v N C D D ",
"v v v v M C ;.;.Z C v v ;.<.,.;.v v D D ` &XNX2XD.x.1XcXNXMXfX2X2XcXCXcXtXF.W.tXCXiX6.:.<.<.,.;.D D D A v v v v C N v v Z D 3.3.",
"v v v v C Z F F Z C v b ;.;.;.F v v Z A &.qXmX8XW.a.Y.|.>X).p.r.t g.).E.U.a.!.dXvXjXOX,.;.,.,.;.A A D A v k j v N C v v D F 3.3.",
"A A A D 1.1.b v A D 1.1.F A v v M M v v 7.kXfX7Xb.L |.8X|.w u.u.1 * ; D.T.z.v.7XfXNX=X%.D D D A v v C C M M v v A D A D 3.3.F F ",
"A A D D 1.<.v v Z D 1.1.D Z v v M M v v .XzX1X~.} I  .1X1Xe u.1 * * - Y.B.T R Q.;X8X#X] A A A Z v k M M C M v v A D D F 3.3.F D ",
"v v A A b v k j v v v v v v j v M C M M ..E.D.v.I j I | c.e < $ . $ 7 c.[ g m { B.m.x.I b N v v j j v v M C A A D D 3.3.3.3.D D ",
"j v Z Z v j j j j j j j j j j v N C C ' L.U.x.[ g v C R b.].t.X   w Y.J f v M z K R.1XL.' C v v v v v v N C D D D D 3.3.3.3.D D ",
"j j v v j j j j j j j j j j j v Z D 7.9XsX1Xv.R A D 3.%.P.fXaXg.t eX7X{ B A v v ! K.2XdX9X8.D A A A A A A D D D D D D F 3.3.D D ",
"j j v v v v v v v v v v v v j v A %.*XNXVX1XK V D F 3.4.@XMXZXgXfXZXyXo.A A v v z L <XNXNXqX&.D D D D D D D D D D D D D 1.1.D A ",
"j v M C F ;.;.;.A A A A A Z v v S 7.pXCXhX|.{ V ;.<.3.6.0XMXNXuXaXZXcX@X5.,.;.;.` | [.fXZXjX9.D ;.,.,.;.D D D D D D D D Z C v v ",
"v v M C ;.;.<.,.F D D D D A v v D $XMXcXtXQ.E D ;.<.3.OXjXfXmXuX2XMXfXgX*XOX6.<.;.E P.8XhXvX&X%.;.,.,.;.D D D D D D A A C M v v ",
"M M C C C Z ;.<.,.,.,.,.:.;.A A &.qXhX2XQ.~ V D D D &.=XbXxXmXvXyXMXxXmXsX3XiX9.m c ~ Q.|.uX0X&.D D D D D D D D D A v v M C A A ",
"M M M M N C ;.<.;.;.;.F ,.2.%.' -.7X}.K.~ V D D D D XXjXbXCXnXCXvXmXcXNXhX].lXpX8.m S ~ b.{.3X-.` A D D A A A A D A v v N C D F ",
"v v v v M C ;.;.Z C v s ' oX%X#X[.!.x.T S D D D D $.*XNXbXnXrXmXNXsXuXCXNX1X:XjXpXXX<.$.~ B.[.+X^.=.#.n v v v v C N v v Z D 3.3.",
"v v v v C Z F F Z C b b $.&.-.Q.[.;XR.( A A A A A 5.iXZXZXxXY.:X1X`.hXNXvX2XD.3XcXjXXX<._ (.1X;X5X+X*.z v v j v N C v v D F 3.3.",
"A A A D 1.1.b v A D 1.1.F S o.~.,X<XQ.E v v N C v >.yXVXMXkXD.m.m.`.mXmXuX2Xm.E.5XmXpXXX] *X8X}.Q.o.V C C b k v A D A D 3.3.F D ",
"A A D D 1.<.v v Z D 1.1.D =./.R.,X:XQ.( j k M M j O.wXmXfXlX!.n.C.8XxXhXhX6Xm.C.R.3XkXjX.X#X1X}.Q.X.) M C M v v A D D F 3.3.D D ",
"v v A A b v k j v v v v E ..{ B.R.W.K.( k j k k j O.8XmXtXtX'.e.E.gXfXfXcX6Xm.D.S.W.3XmX5XU.`.W.+.o...g M C A A D D 3.3.3.3.D D ",
"j v Z Z v j j j j j j s a I U P.L.:X~.' v v v v v O.4XsX1X1XU.e.<XkXyXfXcX<Xz.V.S.S.W.2X}.M.E.!.J.c R a z C D D D D 3.3.3.3.D D ",
"j j v v j j j j j j j s s j E ..o.L.L.*.%.1.D A A &.#X:X[.}.F.s.8XNXyXhXmXQ.G } V.D.S.W.W.'.E.J.^._ Z n M D D D D D D F 3.3.D D ",
"j j j j j j v v j j j k v v g I _ ! Q ! _ 3.D D D ( B.D.C.W.C.m.aXNXfXmXgXG.f g } V.M.i `.dX}.~ / B D D A A A A A A A D 1.1.D A ",
"j j j j j v M M v j j v M M h s v s h s c Z D D D ) P m.s.V.M.M.dXmX8XlXtXv.x ;.) } B.M.W.dX2XU c m C C v v v v v v v v v v v v ",
"j j j j v v C C v v j v M N v v v v v v M N A A A Z G N.s.M.C.s.5X8X`.1X}.| W :.:.) | C.D.1XkXXXC C M M v j v v v v v v v v j j ",
"j j j v F ;.;.;.;.F v v M C A A A A A Z v v v v v v E v.a.x.m.e.R.W.F.E.U.} V D D S I v.S.{.gX*X` M v v j v D ;.;.;.A A A Z v j ",
"v v j v F ;.<.<.;.F v v C Z D D D D D A v j v v v b $.K z.x.a.e.x.`.8XU.z.G D D A Z g } C.Y.yX9X` M v j v v ;.,.<.,.F D D A v v ",
"A Z v j v b ;.;.v v F ;.;.;.;.,.,.;.Z N v v Z A D D D R v.~.C.f.C.2XzX}.P E ;.;.v v m T V.U.8X*X%.A v v Z A D D ,.<.3.3.D D A A ",
"D A v v v v F F v v F ;.<.<.<.<.,.;.Z N v v Z A D D D n  .U.n.n.V.[.1XR.K B :.;.v v m [ V.D.:X*X%.Z v v Z A D D ;.<.3.3.F D A A ",
"D D ;.F C M Z C v j v b ;.<.<.,.D D D A A Z v v A D D R L m.a.z.x.e.C.e.G F <.;.v j j J V.S.{.%X( v M M v v A D D D F F ;.;.v v ",
"D D ,.;.C C M M v v v v ;.,.,.;.D D D D A Z v v A D D G l.e.a.e.N.e.e.z.T ;.,.;.v v g J V.S.{.%X) b N M v v Z A A A A A ;.F v j ",
"D D ,.;.C M v v Z A A A D D D D D F 3.1.v v Z A C C F ! T.I.i.f.U.!.E.N.T D D D A A E | C.D.{.@X4.1.Z N M M v v C C v v C C v j ",
"D F ;.F Z C v v A D D D D D D D D F 3.1.b b ` 5.=.7.=.{ m.2 < 8 }.>X;X!.J ) S S S E { V.Z.A.Q.=.3.1.Z C N M v v M M v v M M v j ",
"3.1.b v F ;.A A ;.,.,.;.D D D D D D D F 5.9.&X9X9XwX,XN.d.= * r M.r.2 A.B.| X.X.{ | b.S.S.K.X._ D D D A v v M M v v M M C M v j ",
"3.<.v v ;.;.D D ;.,.<.,.D D D D A D 5.OX9XwX<XQ.G.H.H.z.M.w = p.p.1 > d.C.x.K.K.C.Z.S.V.v..._ D D D D A v v C C v v M M M M v v ",
"v v M C D D D D D D ,.<.,.,.:.,.] oX*X+XL.| T Q W W W E  .r = i.p.2 = d.C.a.V.V.D.C.v.| { ) D D D D D D A A ;.;.;.F v v v v M M ",
"j v M C D D D D D D ;.,.,.:.,.8.*X+XG.^ f c S ,.<.<.1.$.{ y = r p.> = d.x.L P } } } R W S A D D D D D D D D ;.,.,.;.v v v v M M ",
"j v M C ;.,.,.;.D D D D D A ] *X+X^ g v A A D F <.<.3.3.I  .: 8 p.* = d.} W $.` $.` v v C C D D ;.,.,.;.D D D D D D A A N M v v ",
"v v M C ;.:.<.,.F D D D D D -.@X' S v v A D D D ;.<.3.1.z 9 ; 8 r = = s.~ F <.<.;.F v v C Z D D ;.,.,.;.D D D D D D A A C M v v ",
"M M C C C Z ;.<.<.<.<.<.:.,.-.oX%.:.;.;.D D D D D D D F V 9 ; 8 > * w  .) <.<.;.v v F ;.;.;.D D D D D D D D D D D A v v M C A A ",
"M M M M N C ;.<.,.,.;.,.<.<.$.-.@.#.:.;.D D D D D D &.9..XS.> 8 > * r } _ ;.,.;.v v ;.<.<.,.F D D D D D A A A A D A v v N C D D ",
"v v v v M C ;.;.Z C v v ;.<.:.F m v A D D D D D &.XX=XjXkX:XZ.w.; * r } n Z D D ;.;.<.<.<.<.,.;.D D D A v v v v C N v v Z D 3.3.",
"v v v v C Z F F Z C v b ;.;.;.D v v Z A A A S _ &XwX#XtXdX!.m.x.w : 7 H n C D D ;.,.,.,.,.,.,.;.A A D A v k j v N C v v D F 3.3.",
"A A A D 1.1.b v A D 1.1.F A v v M M v v v v s @ X.^ ..<X/.| W.8X6XeXD.P E S D D D D D D D D D A v v C C M M k v A D A D 3.3.F F ",
"A A D D 1.<.v v Z D 1.1.D Z v v M M v j j v c z g c ` Y +.@XwX1X3XzX{.`.+X7.$.D A A A A A A A Z v v M M C M v v A D D F 3.3.F D ",
"v v A A b v k j v v v v v v j v M C M M k j v v k v s @ /.,XG.T +XdXF.K.7X9Xo.c v v v v N N v v j j v v M C A A D D 3.3.3.3.D D ",
"j v Z Z v j j j j j j j j j j v C C C C v v v v v v d @ { T z m o.W.~ ) T +.[ @ j v j v C C v v v v v v N C D D D D 3.3.3.3.D D ",
"j j v v j j j j j j j j j j j v A D A D 1.1.D A A D 1.<.S Z b v U 5 f b Z V f d b M v v <.1.D A A A A A A D D D D D D F 3.3.F D ",
"j j j j j j j j j j j j j j j v A D D D 3.3.D D D D 3.3.F A v v n d j v A A v v M M v v 3.3.D D D D D D D D D D D D D D 3.3.D D "
};
