/* XPM */
static char *_3d8569ac4a44a8dff7d748f871a342cpOUpd8yHhcLseouo[] = {
/* columns rows colors chars-per-pixel */
"64 64 240 2 ",
"   c None",
".  c #000000",
"X  c #0A0708",
"o  c #140C04",
"O  c #141714",
"+  c #0D0C0D",
"@  c #2A1704",
"#  c #371D04",
"$  c #1D221D",
"%  c #33281A",
"&  c #311631",
"*  c #322E32",
"=  c #4E3012",
"-  c #771C3E",
";  c #6D3A2B",
":  c #774C26",
">  c #774D37",
",  c #5C442A",
"<  c #3A3779",
"1  c #4A0A4A",
"2  c #731D47",
"3  c #4D314E",
"4  c #6A224A",
"5  c #6B2451",
"6  c #52306B",
"7  c #6C3069",
"8  c #630263",
"9  c #3C4979",
"0  c #3B4F6B",
"q  c #544A4F",
"w  c #7D5C46",
"e  c #6A4F4D",
"r  c #4A4A67",
"t  c #535370",
"y  c #6C516E",
"u  c #736B76",
"i  c #961B07",
"p  c #A80B15",
"a  c #AD0A11",
"s  c #8C2E07",
"d  c #962A02",
"f  c #8B3400",
"g  c #8E3B00",
"h  c #953D00",
"j  c #9A3F00",
"k  c #913303",
"l  c #942D17",
"z  c #8F2D10",
"x  c #BA3C00",
"c  c #A43A19",
"v  c #A53002",
"b  c #8A162B",
"n  c #8B1433",
"m  c #9A2927",
"M  c #803928",
"N  c #A32B2F",
"B  c #C6001C",
"V  c #8A4C0B",
"C  c #9D4301",
"Z  c #9A4903",
"A  c #95540C",
"S  c #9B5B1A",
"D  c #965614",
"F  c #8C4F14",
"G  c #A34600",
"H  c #A54A01",
"J  c #AB4D00",
"K  c #A64808",
"L  c #B74600",
"P  c #AE5200",
"I  c #AC560C",
"U  c #B45500",
"Y  c #BB5B00",
"T  c #B45A07",
"R  c #AB4D15",
"E  c #9C6219",
"W  c #BE6101",
"Q  c #BB680D",
"!  c #A7631B",
"~  c #B96914",
"^  c #BB731B",
"/  c #935926",
"(  c #8F522B",
")  c #B14433",
"_  c #976636",
"`  c #90642F",
"'  c #A66827",
"]  c #B1742C",
"[  c #B27334",
"{  c #B87A3A",
"}  c #AD6D32",
"|  c #C2510D",
" . c #C36301",
".. c #CB6B00",
"X. c #C56804",
"o. c #D26F00",
"O. c #CD7203",
"+. c #CB740C",
"@. c #D47401",
"#. c #DC7B00",
"$. c #D77A08",
"%. c #C97918",
"&. c #CD7414",
"*. c #E47E04",
"=. c #EA7A1C",
"-. c #C7482D",
";. c #CB7025",
":. c #EC6F2D",
">. c #8E1A42",
",. c #8D3155",
"<. c #A92447",
"1. c #A83E42",
"2. c #875144",
"3. c #AE504A",
"4. c #916C50",
"5. c #A47746",
"6. c #AD7C51",
"7. c #8B746C",
"8. c #92616B",
"9. c #D04742",
"0. c #E26847",
"q. c #BA8239",
"w. c #DB830A",
"e. c #D68617",
"r. c #DF941F",
"t. c #E28200",
"y. c #E88600",
"u. c #E98A02",
"i. c #E48B0B",
"p. c #EA920C",
"a. c #EB9E0E",
"s. c #E48B11",
"d. c #EB9A15",
"f. c #E89716",
"g. c #ECA01E",
"h. c #CA8527",
"j. c #DA9729",
"k. c #D1912F",
"l. c #E39B24",
"z. c #F39E3E",
"x. c #DDA136",
"c. c #EDA524",
"v. c #EEAB2C",
"b. c #E6A22B",
"n. c #EEAE31",
"m. c #E4AA38",
"M. c #EFB234",
"N. c #EDB43D",
"B. c #F1B739",
"V. c #F2AF2B",
"C. c #BB8347",
"Z. c #BB8755",
"A. c #958570",
"S. c #B28C6B",
"D. c #B5B47F",
"F. c #CB8C4C",
"G. c #C58646",
"H. c #C98D51",
"J. c #CE9455",
"K. c #D6995B",
"L. c #CF934E",
"P. c #D5AB4D",
"I. c #E6B748",
"U. c #F1BD43",
"Y. c #E4BC53",
"T. c #D59B63",
"R. c #C8996F",
"E. c #DCA368",
"W. c #D2AD75",
"Q. c #E4AD76",
"!. c #E8B37C",
"~. c #E3A96E",
"^. c #F3C54C",
"/. c #F4C448",
"(. c #EAC557",
"). c #F4CC54",
"_. c #F5D25C",
"`. c #EEC34F",
"'. c #F4DC6B",
"]. c #F5D965",
"[. c #EDCF6B",
"{. c #F7E26E",
"}. c #F6E272",
"|. c #F8E675",
" X c #F8EA7B",
".X c #F8E877",
"XX c #CCC57D",
"oX c #353989",
"OX c #3D3BB2",
"+X c #403681",
"@X c #284A99",
"#X c #375598",
"$X c #314997",
"%X c #1549AA",
"&X c #194AA6",
"*X c #1B55B5",
"=X c #114AAE",
"-X c #244AA5",
";X c #2653AB",
":X c #355AA8",
">X c #2D5CB7",
",X c #2E50B5",
"<X c #2C62BE",
"1X c #3664B8",
"2X c #474989",
"3X c #46598C",
"4X c #515495",
"5X c #506594",
"6X c #6C6E89",
"7X c #5152A3",
"8X c #4768B7",
"9X c #506EB3",
"0X c #6878B3",
"qX c #275EC1",
"wX c #2B66C6",
"eX c #3569C7",
"rX c #3C73CD",
"tX c #346ED0",
"yX c #3C74D4",
"uX c #3A78D6",
"iX c #447BD7",
"pX c #4879CE",
"aX c #4258C4",
"sX c #837983",
"dX c #708390",
"fX c #4A83DD",
"gX c #5384D4",
"hX c #538DE7",
"jX c #5791E9",
"kX c #8C8E8E",
"lX c #94A391",
"zX c #B39684",
"xX c #C8A588",
"cX c #ECB884",
"vX c #F1BC8E",
"bX c #CCB6A0",
"nX c #F5C493",
"mX c #F7C38F",
"MX c #DBCAA2",
"NX c #F4EAE0",
/* pixels */
"                                                                                                                                ",
"                                                                                                                                ",
"                                                                                                                                ",
"                                                                        1 $ . *                                                 ",
"                                                                    * X . . +                                                   ",
"                                                                  & . . . + y                                                   ",
"                                                                7 O . . X &                                                     ",
"                                                                X . . . $ y                                                     ",
"                                                      * O . . . . . . . + $ . . . O * 3                                         ",
"                                                  O . . . . . . . . . . . . . . . . . X $ 1                                     ",
"                                              y q . . . . . . . . . . . . . . . + 3       y 1                                   ",
"                                      1 & + X . . . . . . . . . o . . . . . . .                                                 ",
"                                          3 O . . . . . . . . o / = o . o @ . . . $ 7                                           ",
"                                          3 O . . . . = : = . o 6.! # . @ V X . . . X 3                                         ",
"                                          7 $ . . . . ` L.} = X % _ = % : @ X *       3 8                                       ",
"                                    -.-.:.;.A = . . . o > G.G.xXbXq = = = M                                                     ",
"                                ,X2XW s.t.} , @ o O . X : G.K.nXNXNXZ.S.bX' [.z.;.                                              ",
"                              rXyX9 ~ '.%.@...C F e = F / _ J.cXnXQ.C.J.T.E '.(.'.).l.0.                                        ",
"          D G.E.T.' 3.        yXyX9 Q M.X.l.5.e ] G.F.E.S.4.5.[ E.J.[ ' ' ! '.+.Y.(.Y.{.N.                                      ",
"        A { Q.Q.G.S q.        3XtX5XY t.#.^.lX-X6XE.Q.nX~.C.5.F 4.A.5.! U w.'.e.`.m.j.'.m.A.                                    ",
"        E F.T.T.[ D '       T.6XwXgXt w.u.).lX%X&X3X4.H.Q.~.G.C.W.S./ Z %.).g.i.).N.v.XX5XfXfXaX                                ",
"        E H.Q.cXH.! e 3X2.{ L.u 1XuX@XT #.U.}.lX*XiX:X:Xu R.xX6.` 3X;Xe h.'.i.^.h.m.D.1XfX<XiX<X                                ",
"        E [ S [ ! F u fX@X5.{ F.sX=X$XI  .@.v.W.5X;XrXhXpX>X>X>X>XyX:Xw x.I. .t.e.J.lXwXhXiX*X=X                                ",
"          A A A > 3XiXfX-X_ D G.S.3X$XT o...@.V.MX&XwXeXfXjXjXjXyXt 5.N.n...Y b.N.kXtXrXrX0X6Xt                                 ",
"          r r r 8XtXwX8XkXH.S } K.zX-Xt R b.l.$.I.lX8XeXfXfXwX1Xe X.d.f. .Y $.].A.3XqX@X7.T.{ A             3.H.E.Q.            ",
"            ,X&X>X;X5XxXE.!.' H.Q.Z.e -X/ w.N.m.u.c.W.9X>Xt ( / #.y.n.(.m.w.`.dX;Xr 2.6.F.Q.F.E (       vXJ.] G.cXnXL.          ",
"              ,.: _ R.mXcXT.C.F.{ D 3.  <.K +.V.I.W i.Y.C.Q c.]._.d.p.d.w.Y ~ $Xq ' K.!.H.mXvX{ V > 7X/ G.} S [ E.mXF.          ",
"                  } q.q.J.!.{ ] }           r ~ @.J J @.#.l._.).s.#.*...Z ; > ; : ' J.cXK.~.[ S A w gX> F F ' K.cX!.E           ",
"                        ] ] ] 3.            *X5X( _ Z G U  .@.@.J J ( > r wXyX  2.V ' K.vX[ { K.G.4.hX-X: A ' [ [ [             ",
"                                            3XtXtXeXt 3 y 7.u e u q :XyXtX1Xy     1.D { E.F.E.Q.K.A.eXeXt : A V (               ",
"                                          R ~ u <X<XuXiXtXwXwXuXhXiXeX<X5X] $.        D G.F.K.Q.E.C.7.1XyX#X9                   ",
"                                        ) O.B.Y.^ / 5X:X-X@X@X:X:X:Xe ! k.^.p.:.      D S { ' { H.{ S : 2.2X                    ",
"                                        -.I.|.U.#.X.[.m.%.I I I $.j.+.Y ..d.].d.        1.) [ ! A D ) 1.                        ",
"                                      l P m.V.@.Y u./.|.M.o.U Y @.N.B.%. .p.U.w.W                                               ",
"                                      l C  .#.t.@.u.u.v.U.l...Y Y #.).I.@.p.n.$...9.                                            ",
"                                      s C j W u.y.....#./.).#.Y Y #.g.d.#.%.}.).d.w.                                            ",
"                                  m f P @.$.O.@.p.Y.(.e.+.$.#.U Y #.@. .e.(.}. X'.n.s.                                          ",
"                                  h W s.d.^.}.`.d.p.i.I.k.Y U g J G k._.I.i.s.).|.|./.y.:.                                      ",
"                                H ..i.^.{..X.X.X'.c.h.+.@...G f j ..#...Y  ...t.).mX_.d.*.                                      ",
"                            m C ..u.u.v.'. X X'.U././.s.Y h f C G U  ...w.M.M.M.]. X.X'.n.u.                                    ",
"                          l C  .#.d.^.|..X^.n.c.y.y.o.J C j f C G U  .#.p.M.M.M.n.)..X.X}.p.0.                                  ",
"                        <.K U @.u.c..X|.|.].c.@. . .C G C     s h P Y Y ..y.y.y.M.]..X|.|._.a.;.                                ",
"                      N J U @.y.v.{.'.c.d.d.$.Y Y #.Y h         m f W @.Y ..t.t.p.d.d.M.|..Xv.O.                                ",
"                        k U #.y.M. X.X}.d.y.u.#...#.U m             K  .t.t...%.$.*.d.)._..X.Xv.@.                              ",
"                      f C U #.u.g._.|.^.p.#.@.@.O.H f                 g U #.u.B.x.x.n.c.u.B.}.m.X.9.                            ",
"                      g Y Y ..#.y.p.M.u.u.#.@. .j s                   <.f H ....b.B.).}.U.B.B.%.J R                             ",
"                      H C U U  ... . ...t.u.#.Y G l                       P @.H U ..$.c.n.}._.e.C C =.                          ",
"                    c W ..K J U U Y X.w.+. .@.O.)                         h W P.l.t.@. . .s._.k.h.I.=.                          ",
"                    C U X.Y.] D ~ n.'._.(.r...P m                         m f I P.N.d.f.#.Y w.Q k.^.y.|                         ",
"                    P H J @.N.'.[.I.I.$... .U c                             z f j h.(.N.....f.I.b.y.@.Y                         ",
"                    ..i.q.H  .l.I.k...o.@.U g                               s C P  ...$.M.p.x.e.#.#.U K                         ",
"                    H $.n.P.R U w.B.U.O.Y h <.                                c Y #.t.w.v.O.G X.t.Y h s                         ",
"                    f j  .f.I.j.o.O.f.#.Y h                                   N f J  . .Y j W ..J k s p                         ",
"                    i d d U Q $.t.@.Y U c                                         d d d d L | v i p p oX                        ",
"                    < b b d x L x x x d                                             b b b b b b 7 2Xp ,X                        ",
"                    *X:X6 2 2 2 ,.,.2 2                                               %X%X%X<XeXiX0X5   @X                      ",
"                  OXwX  a @XwXyXtXwX,X                                                %X%X%X>XeXiXhX8Xa 7X                      ",
"                  0 *X2Xp 9XhXpX;X&XOX                                                  e 7.#X&X;X>X:X6 ,.4.                    ",
"                -Xu 3.b 2X#X:Xt `                                                       $X#Xe 4.4.w 7.w p   9X                  ",
"              OXuX8X3 > 4.4.6.5X-X                                                      +X< @X&X&X;XpXpXpX8.  7X                ",
"            a oX7X,.7 wXeXyXuX2X                                                            7 6 6 6 %X%X%XwX4X- 2 6             ",
"            a - 5 oXwXhXeX5 4                                                                       4 4 4 4 4 5 - a -           ",
"              B b n >.,.>.                                                                                                      ",
"                                                                                                                                "
};
