/* XPM */
static char *_c48792d261648f2bbdd0b06807832eaAMJ1LI4ZvbXE2OPA[] = {
/* columns rows colors chars-per-pixel */
"64 64 231 2 ",
"   c #000000",
".  c #0A0708",
"X  c #0D0C0D",
"o  c #140C04",
"O  c #141714",
"+  c #2D1804",
"@  c #1D221D",
"#  c #33281A",
"$  c #311631",
"%  c #322E32",
"&  c #4E3012",
"*  c #771C3E",
"=  c #6D3A2B",
"-  c #5C442A",
";  c #774C26",
":  c #774D37",
">  c #3A3779",
",  c #4A0A4A",
"<  c #731D47",
"1  c #4D314E",
"2  c #6A224A",
"3  c #6B2451",
"4  c #630263",
"5  c #52306B",
"6  c #6C3069",
"7  c #3C4A76",
"8  c #544A4F",
"9  c #6A4F4D",
"0  c #7D5C46",
"q  c #4A4A67",
"w  c #535370",
"e  c #6C516E",
"r  c #736B76",
"t  c #961B07",
"y  c #AD0A11",
"u  c #A80B15",
"i  c #8C2E07",
"p  c #962A02",
"a  c #8B3400",
"s  c #8E3B00",
"d  c #953D00",
"f  c #973C01",
"g  c #932D15",
"h  c #BA3C00",
"j  c #A43611",
"k  c #8A162B",
"l  c #8B1433",
"z  c #9A2927",
"x  c #803928",
"c  c #A32B2F",
"v  c #C6001C",
"b  c #9D4301",
"n  c #9A4903",
"m  c #95540C",
"M  c #8B4E12",
"N  c #985817",
"B  c #A34600",
"V  c #A54A01",
"C  c #AB4D00",
"Z  c #A64808",
"A  c #AF4B0E",
"S  c #AE5200",
"D  c #AC560C",
"F  c #B45500",
"G  c #B45A07",
"H  c #BB5B00",
"J  c #9C6219",
"K  c #BE6101",
"L  c #BB680D",
"P  c #A7631B",
"I  c #BA6B15",
"U  c #8F522B",
"Y  c #935926",
"T  c #B14433",
"R  c #90642F",
"E  c #976636",
"W  c #A66827",
"Q  c #B1742C",
"!  c #AD6D32",
"~  c #B67738",
"^  c #C2510D",
"/  c #C36301",
"(  c #C56804",
")  c #CB6B00",
"_  c #D26F00",
"`  c #CD7203",
"'  c #CB740C",
"]  c #D47401",
"[  c #DC7B00",
"{  c #D77A08",
"}  c #C97918",
"|  c #E67C0D",
" . c #C7482D",
".. c #CB7025",
"X. c #EC6F2D",
"o. c #8E1A42",
"O. c #8D3155",
"+. c #A82F45",
"@. c #875144",
"#. c #AE504A",
"$. c #916C50",
"%. c #A8794B",
"&. c #92616B",
"*. c #8B746C",
"=. c #D04742",
"-. c #E26847",
";. c #679E32",
":. c #689F32",
">. c #6AA334",
",. c #6EA835",
"<. c #71AD37",
"1. c #72AF38",
"2. c #75B339",
"3. c #78B73A",
"4. c #7BBC3C",
"5. c #7EC13D",
"6. c #BA8239",
"7. c #DB830A",
"8. c #D68617",
"9. c #DF941F",
"0. c #E28200",
"q. c #E88600",
"w. c #E98A02",
"e. c #E48B0B",
"r. c #EA920C",
"t. c #EB9E0E",
"y. c #E48B11",
"u. c #E99816",
"i. c #ECA01E",
"p. c #CA8527",
"a. c #D1912F",
"s. c #DA9729",
"d. c #E39B24",
"f. c #F39E3E",
"g. c #DDA136",
"h. c #ECA728",
"j. c #F2AF2B",
"k. c #EEAE31",
"l. c #E4AA38",
"z. c #EFB234",
"x. c #EDB43D",
"c. c #F1B739",
"v. c #81C53F",
"b. c #BB8347",
"n. c #BB8755",
"m. c #B28C6B",
"M. c #A09575",
"N. c #C78849",
"B. c #CF934E",
"V. c #C98D51",
"C. c #CE9455",
"Z. c #D6995B",
"A. c #D5AB4D",
"S. c #E6B748",
"D. c #F1BD43",
"F. c #E4BC53",
"G. c #C8996F",
"H. c #D59B63",
"J. c #DCA368",
"K. c #D2AD75",
"L. c #E3A96E",
"P. c #E4AD76",
"I. c #E8B37C",
"U. c #83C740",
"Y. c #84C940",
"T. c #88CF42",
"R. c #8AD243",
"E. c #EEC34F",
"W. c #F3C44A",
"Q. c #EAC557",
"!. c #F4CC54",
"~. c #F5D25C",
"^. c #CCC57D",
"/. c #EDCF6B",
"(. c #F5D965",
"). c #F4DC6B",
"_. c #F7E26E",
"`. c #F6E372",
"'. c #F8E675",
"]. c #F8EA7B",
"[. c #353989",
"{. c #3D3BB2",
"}. c #403681",
"|. c #284A99",
" X c #314997",
".X c #375598",
"XX c #194AA6",
"oX c #1549AA",
"OX c #1750B2",
"+X c #244AA5",
"@X c #2653AB",
"#X c #355AA8",
"$X c #2E50B5",
"%X c #2D5CB7",
"&X c #2C62BE",
"*X c #3664B8",
"=X c #474989",
"-X c #46598C",
";X c #515495",
":X c #506594",
">X c #6C6E89",
",X c #5152A3",
"<X c #4C6BB5",
"1X c #6878B3",
"2X c #275EC1",
"3X c #2B66C6",
"4X c #3569C7",
"5X c #3C73CD",
"6X c #346ED0",
"7X c #3C74D4",
"8X c #3A78D6",
"9X c #4258C4",
"0X c #4879CE",
"qX c #447BD7",
"wX c #837983",
"eX c #708390",
"rX c #4A83DD",
"tX c #5384D4",
"yX c #538DE7",
"uX c #5791E9",
"iX c #8C8E8E",
"pX c #B39684",
"aX c #94A391",
"sX c #C8A588",
"dX c #ECB884",
"fX c #F1BC8E",
"gX c #CCB6A0",
"hX c #F7C38F",
"jX c #F5C493",
"kX c #DBCAA2",
"lX c #F4EAE0",
/* pixels */
";.;.;.;.;.>.<.<.>.;.;.>.<.<.>.;.;.;.;.>.<.2.4.4.4.3.>.;.;.>.<.<.>.>.4.4.4.4.U.Y.Y.U.4.4.4.4.4.4.2.2.2.<.:.;.;.;.;.;.;.;.;.;.;.;.",
";.;.;.;.>.>.2.2.>.>.;.>.<.<.>.>.>.>.>.>.<.2.3.3.3.2.>.>.>.>.<.<.>.>.3.4.4.4.v.U.U.v.3.3.3.3.3.3.2.2.<.<.:.;.>.>.>.>.>.>.>.>.;.;.",
";.;.;.>.5.v.v.v.v.5.>.>.<.2.3.3.3.3.3.2.>.>.>.>.>.>.Y.T.2.<.>.>.2.4.4.4.v.v.4.4.4.3.>.>.>.>.>.>.<.<.>.>.;.>.4.v.v.v.3.3.3.2.>.;.",
">.>.;.>.5.v.Y.Y.v.5.>.>.2.2.4.4.4.4.4.3.>.:.>.>.>.>.T.T.2.<.>.>.4.4.4.4., @   % 3.2.>.>.>.>.>.>.2.1.>.;.>.>.v.U.Y.U.5.5.4.3.>.>.",
"3.2.>.;.>.,.v.v.>.>.5.v.v.v.v.U.U.v.2.1.>.>.2.3.3.3.4.4.>.>.<.2.v.U.% .     X v.>.>.<.1.3.3.3.3.4.3.>.>.2.3.4.4.U.Y.R.R.4.4.3.3.",
"4.3.>.>.>.>.5.5.>.>.5.v.Y.Y.Y.Y.U.v.2.1.>.>.2.3.4.4.4.3.>.>.1.2.v.$       X e v.>.>.<.2.3.3.3.3.3.2.>.>.2.3.4.4.v.Y.R.R.5.4.3.3.",
"4.4.v.5.2.<.2.2.>.;.>.,.v.Y.Y.U.4.4.4.3.3.2.>.>.3.4.4.4.3.3.3.4.6 O     . $ Y.v.>.;.>.>.>.>.>.>.>.>.<.<.>.>.3.4.4.4.4.5.v.v.>.>.",
"4.4.U.v.2.2.<.<.>.>.>.>.v.U.U.v.4.4.4.4.3.2.>.>.3.4.4.4.4.4.4.4..       @ e Y.v.>.>.>.>.>.>.>.>.>.>.2.<.>.>.2.3.3.3.3.3.v.5.>.;.",
"4.4.U.v.2.<.>.>.2.3.3.3.4.4.4.4.4.4.R.T.,.>.2.3.2.2.v.% O               X @       O % 1 3.3.3.4.T.T.2.1.<.<.>.>.2.2.>.>.2.2.>.;.",
"4.5.v.5.2.2.>.>.3.4.4.4.4.4.4.4.4.4.R.T.,.>.4.4.2.O                                   . @ , 4.4.R.T.2.2.1.<.>.>.<.<.>.>.<.<.>.;.",
"R.T.,.>.5.v.3.3.v.U.U.v.4.4.4.4.4.4.4.5.v.v.U.e 8                               X 1 4.4.4.e , 4.4.4.4.3.>.>.<.<.>.>.<.<.2.<.>.;.",
"R.Y.>.>.v.v.4.4.v.U.Y.U.5.4.4.4.3.3.4., $ X .                   o               Y.U.5.4.4.4.4.4.4.4.4.3.>.>.2.2.>.>.<.<.<.<.>.>.",
">.>.<.2.4.4.4.4.4.5.U.Y.U.U.U.v.>.>.v.v.>.1 O                 o Y & o   o +       @ 6 v.4.4.4.4.4.4.4.4.3.3.v.v.v.5.>.>.>.>.<.<.",
";.>.<.2.4.4.4.4.4.4.v.U.U.v.v.5.>.>.5.5.>.1 O         & ; &   o %.P +   + M .       . 1 4.4.4.4.4.4.4.4.4.4.v.U.U.v.>.>.>.>.<.<.",
";.>.<.2.v.U.U.v.4.4.4.4.4.3.>.>.2.2.>.>.2.6 @         R B.! & . # E & # ; + . % Y.v.>.1 4 2.4.4.v.U.U.v.4.4.4.4.4.4.3.3.1.<.>.>.",
">.>.<.2.v.v.Y.U.5.4.4.4.4.3.>.>.4.4. . .X...m &       o : N.N.sXgX8 & & & x Y.Y.v.4.>.>.2.2.4.4.v.U.U.v.4.4.4.4.4.4.3.3.2.<.>.>.",
"<.<.2.2.2.2.v.Y.U.U.U.U.U.v.3.3.$X=XK y.0.! - + o O   . ; N.Z.jXlXlXn.m.gXW /.f...>.5.v.v.v.4.4.4.4.4.4.4.4.4.4.4.3.>.>.<.2.3.3.",
"<.<.<.<.1.2.v.U.v.v.v.v.Y.U.4.5X7X7 L ).} ] ) b M 9 & M Y E C.dXjXP.b.C.H.J ).Q.).!.d.-.U.U.4.4.4.4.4.4.3.3.3.3.4.3.>.>.1.2.4.4.",
">.>.>.>.<.N N.J.H.W #.>.v.Y.U.8X7X7 L x.( d.%.9 Q N.N.J.m.$.%.~ J.C.~ W W P /.' F.Q.F._.x.Y.U.v.4.4.4.3.>.>.>.>.2.1.>.>.2.4.R.R.",
">.>.>.>.m ~ P.P.N.N 6.,.v.v.v.-X6X:XH 0.[ W.aX+X>XJ.P.jXL.b.%.M $.M.%.P F 7.(.8.E.l.s.).l.M.U.v.3.3.4.3.>.:.;.>.1.2.>.>.4.5.R.R.",
"3.3.3.4.J N.H.H.~ N W T.5.4.H.>X3XtXw 7.w.!.aXoXXX-X$.V.P.L.N.b.K.m.Y n } !.i.e.!.c.h.^.:XrXrX9X>.>.2.2.<.<.:.>.3.4.3.4.R.R.5.5.",
"3.3.4.4.J V.P.dXV.P 9 -X@.~ B.r *X8X|.G [ D.`.aXOXqX#X#Xr G.sX%.R -X@X9 p.(.e.W.p.l.^.*XrX&XqX&X>.:.<.<.2.<.>.>.3.4.4.5.R.R.5.4.",
">.>.3.3.J Q N ~ P M r rX|.%.~ V.wXoX XD / ] h.K.:X@X5XyX0X%X%X%X%X7X#X0 g.S./ 0.8.C.aX4XyX8XOXoX;.;.>.>.<.2.3.3.4.4.R.R.R.R.4.4.",
";.>.2.2.>.m m m : -XqXrX+XE m N.m.-X XD _ ) ] j.kXXX3X4XrXuXuXuX7Xw %.x.k.) H h.x.iX6X5X5X1X>Xw >.>.>.>.1.2.4.4.4.4.R.R.R.R.4.4.",
";.;.>.>.;.q q q <X6X4X<XiXV.N ! Z.pX+Xw D h.d.{ S.aX<X4XrXrX3X*X9 ( u.u./ H { (.M.-X2X|.*.H.~ m 3.3.3.3.3.4.#.V.J.P.4.5.R.R.4.4.",
";.;.>.>.>.>.$XXX%X@X:XsXJ.I.W V.P.n.9 +XY 7.x.l.w.h.K.1X%Xw U Y { q.k.Q.l.7.E.eX@Xq @.%.B.P.N.P U 4.4.4.fXC.Q N.dXjXB.4.T.T.4.3.",
";.>.<.2.5.v.v.O.; E G.hXdXH.b.N.~ m #.>.+.Z ' j.S.K e.F.b.L h.(.~.u.r.u.7.H I  X8 W Z.I.V.hXfX~ n : ,XY N.! N Q J.hXV.4.2.2.>.>.",
">.>.<.2.v.v.Y.U.4.! 6.6.C.I.~ Q ! 3.>.>.3.4.q I [ C C ] [ d.~.!.y.[ [ ) n = : = ; W C.dXZ.L.~ N m 0 tX: M M W Z.dXI.J 3.2.<.>.>.",
"<.<.2.2.2.2.v.Y.U.U.U.U.Q Q Q #.v.v.v.v.4.4.OX:XU E n B F / ] ] C C U : q 4X7Xv.@.m W Z.fX~ ~ Z.N.$.yX+X; m W ~ Q Q >.>.<.2.3.3.",
"<.<.<.<.1.2.v.Y.v.v.v.v.Y.Y.4.4.v.v.U.v.4.4.-X6X6X4Xw 1 e *.r 9 r 8 #X7X6X*Xe 5.>.+.m ~ J.V.J.P.Z.m.4X4Xw ; m m U 3.>.>.1.2.4.5.",
">.>.>.>.<.2.v.Y.2.2.>.>.v.Y.U.v.>.>.3.4.4.A L r &X&X8XqX6X3X3X8XyXqX4X%X:XQ { 4.v.v.U.N N.N.Z.P.J.b.*.*X7X.X7 >.2.1.>.>.2.4.R.R.",
">.>.>.>.2.2.5.5.2.2.>.,.v.v.v.5.>.>.3.3.T ` c.F.I Y :X#X+X|.|.#X#X#X9 P a.W.u.X.v.U.U.N N ~ W ~ V.~ N ; @.=X;.>.1.2.>.>.4.5.R.R.",
"3.3.3.4.T.T.,.>.3.4.T.T.5.3.>.>.<.<.>.>. .S.'.D.[ ( /.l.} D D D { s.' H ) u.(.t.4.4.4.4.#.T ~ P m N T +.<.<.>.>.3.4.3.4.R.R.5.4.",
"3.3.4.4.T.Y.>.>.2.4.T.T.4.2.>.>.<.<.>.g S l.j.] H w.W.'.z._ F H ] x.c.} / r.D.7.K 3.3.3.3.3.3.2.>.:.<.<.2.<.>.>.3.4.4.5.R.R.4.4.",
">.>.3.3.,.>.:.;.>.>.>.>.>.>.;.>.<.2.<.g b / [ 0.] w.w.k.D.d.) H H [ !.S.] r.k.{ ) =.>.>.1.1.>.>.;.;.>.>.<.2.2.3.4.4.R.R.R.R.4.4.",
";.>.2.2.>.;.;.;.;.;.;.;.;.;.;.>.1.2.2.i b f K w.q.) ) [ W.!.[ H H [ i.u.[ } `.!.u.7.;.>.2.2.>.>.>.>.>.>.1.2.4.4.4.4.R.R.R.R.4.4.",
";.;.>.>.;.;.;.;.;.;.;.;.;.;.;.>.3.z a S ] [ ` ] r.F.Q.8.' { [ F H [ ] / 8.Q.`.].).j.y.>.Y.T.4.3.3.3.3.3.4.4.4.4.4.4.4.5.R.R.4.4.",
";.;.;.;.;.;.>.>.;.;.;.;.>.>.;.>.2.f K y.u.W.`.E.u.r.e.S.a.H F s C B a.~.S.e.y.!.'.'.W.q.X.R.4.4.4.4.4.4.3.3.3.3.3.3.3.4.T.T.4.3.",
";.;.;.;.;.>.<.<.>.;.;.>.<.<.>.;.V ) e.W._.'.].].).h.p.' ] ) B a f ) [ ) H / ) 0.!.].~.u.| 4.4.4.2.2.2.2.>.>.>.>.>.>.>.>.>.>.>.>.",
";.;.;.;.>.>.2.2.>.>.;.>.<.1.z b ) w.w.k.).].].).D.W.W.y.H f a b B F / ) 7.z.z.z.(.].].).k.w.3.3.2.2.<.<.>.;.>.>.>.>.>.>.>.>.;.;.",
";.;.;.>.5.v.v.v.v.5.>.>.<.g b / [ u.W.'.].W.k.h.q.q._ C b f a b B F / [ r.z.z.z.k.!.].].`.r.-.>.<.<.>.>.;.>.4.v.v.v.3.3.3.2.>.;.",
">.>.;.>.5.v.Y.Y.v.5.>.>.+.Z F ] w.h.].'.'.(.h.] / / b B b <.>.i f S H H ) q.q.q.z.(.'.'.'.~.t...1.1.>.;.>.>.v.U.Y.U.5.4.4.3.>.>.",
"3.2.>.;.>.,.v.v.>.>.5.c C F ] q.h._.).h.u.u.{ H H [ H f >.>.<.2.z a K ] H ) 0.0.r.u.u.z.'.].h.` 4.3.>.>.2.3.4.4.U.Y.R.R.4.4.3.3.",
"4.3.>.>.>.>.5.5.>.>.5.v.i F [ q.z.].].`.u.q.w.[ ) [ F z >.>.2.2.v.U.Z / 0.0.) } { [ u.!.~.'.].k.] 2.>.>.2.3.4.4.v.Y.R.R.5.4.3.3.",
"4.4.v.5.2.<.2.2.>.;.>.a b F [ w.i.~.'.W.r.[ ] ] ` V a 4.3.3.3.4.4.4.4.s F [ w.c.g.g.k.h.w.c.`.l.( =.1.1.>.>.3.4.4.4.5.5.v.v.>.>.",
"4.4.U.v.2.2.<.<.>.>.>.s H H ) [ q.r.z.w.w.[ ] / f i 4.4.4.4.4.4.4.4.4.+.a V ) ) h.c.!.`.D.c.c.} C A 1.1.>.>.2.3.3.3.3.3.v.5.>.;.",
"4.4.U.v.2.<.>.>.2.3.3.V b F F / ) / / ) 0.w.[ H B g v.U.U.v.4.4.4.4.4.4.4.S ] V F ) { h.k._.~.8.b b | 1.<.<.>.>.2.2.>.>.2.2.>.;.",
"4.5.v.5.2.2.>.>.3.4.j K ) Z C F F H ( 7.' / ] ` T 2.v.U.U.v.4.4.4.4.4.4.4.f K A.d.0.] / / y.~.a.p.S.| 2.1.<.>.>.<.<.>.>.<.<.>.;.",
"R.T.,.>.5.v.3.3.v.U.b F ( F.Q N I k.).~.Q.9.) S z 4.4.4.4.4.v.U.U.U.U.U.U.z a D A.x.u.u.[ H 7.L a.W.q.^ >.>.<.<.>.>.<.<.2.<.>.;.",
"R.Y.>.>.v.v.4.4.v.U.S V C ] x.)./.S.S.{ ) / F j 4.4.4.4.4.4.v.v.v.v.v.U.U.U.g a f p.Q.x.) ) u.S.l.q.] H >.>.2.2.>.>.<.<.<.<.>.>.",
">.>.<.2.4.4.4.4.4.4.) e.6.V / d.S.a.) _ ] F s Y.U.U.v.U.U.v.,.>.>.>.3.4.4.5.i b S / ) { z.r.g.8.[ [ F Z 4.4.U.U.v.5.>.>.>.>.<.<.",
";.>.<.2.4.4.4.4.4.4.V { k.A.D F 8.c.D.` H f +.U.Y.Y.Y.Y.v.5.,.>.>.>.3.4.4.5.R.j H [ 0.7.h.` B ( 0.H f i 4.4.U.U.U.v.>.>.>.>.<.<.",
";.>.<.2.v.U.U.v.4.4.a f / u.S.s._ ` u.[ H f 4.4.U.T.R.R.,.>.5.v.v.v.v.U.U.U.Y.c a C / / H f K ) C a i u 4.4.4.4.4.4.3.3.2.<.>.>.",
">.>.<.2.v.v.Y.U.4.4.t p p F L { 0.] H F j 4.4.4.v.Y.R.T.,.>.v.Y.U.v.v.U.Y.Y.Y.Y.v.p p p p C ^ h t u u [.4.4.4.4.4.4.3.3.2.<.>.>.",
"<.<.2.2.2.2.v.Y.U.U.> k k p h F h h h p 4.4.4.4.4.4.4.4.3.3.v.U.4.3.>.>.v.Y.Y.U.>.>.k k k k k k 6 =Xu $X4.4.4.4.4.3.>.>.<.2.3.3.",
"<.<.<.<.1.2.v.Y.v.v.OX#X5 < < < O.O.< < 4.4.4.4.4.4.4.4.4.4.v.v.3.2.>.>.5.v.U.v.>.>.v.oXoXoX&X4XqX1X3 4.|.3.3.3.4.3.>.>.1.2.4.4.",
">.>.>.>.<.2.v.v.2.{.3X>.y |.3X7X6X3X$X4.4.4.4.4.4.4.4.4.4.4.4.3.>.>.2.3.2.2.4.4.v.v.Y.oXoXoX%X4XqXyX<Xy ,X>.>.>.2.1.:.>.2.4.R.R.",
">.>.>.>.2.2.v.5.2.7 OX=Xu <XyX0X@XXX{.3.3.3.3.3.3.3.4.4.4.4.4.3.>.>.3.4.2.2.4.4.v.U.U.U.9 *..XXX@X%X#X5 O.$.:.:.1.1.>.>.4.5.R.R.",
"3.3.3.4.T.T.,.>.+Xr #.k =X.X#Xw R <.>.>.>.>.2.2.>.>.v.U.U.U.U.v.v.v.4.4.4.4.4.4.4.4.4.4. X.X9 $.$.0 *.0 u <.<X>.3.4.3.3.R.R.5.4.",
"3.3.4.4.T.Y.>.{.8X<X1 : $.$.*.:X+X<.>.>.;.>.<.<.:.>.5.v.v.v.v.v.v.v.5.4.3.3.3.3.3.3.3.3.}.> |.XXXX@X0X0X0X&.>.,X3.4.4.5.R.R.5.4.",
">.>.3.3.,.>.y [.,XO.6 3X4X7X8X=X<.1.1.1.:.;.>.>.;.>.2.2.>.>.2.2.>.,.T.T.>.>.2.2.>.>.>.>.1.1.6 5 5 5 oXoXoX3X;X* < 5 R.R.R.R.4.4.",
";.>.2.2.>.;.y * 3 [.3XyX4X3 2 >.1.2.2.2.>.>.>.>.>.>.2.2.>.>.<.<.>.>.Y.Y.>.>.<.<.>.>.;.>.2.2.>.>.>.>.2 2 2 2 2 3 * y * R.R.R.4.4.",
";.;.>.>.;.;.;.v k l o.O.o.;.;.>.2.4.3.4.T.T.4.3.3.4.T.T.4.2.>.>.<.<.>.>.2.2.>.>.<.<.>.>.Y.T.4.3.3.3.3.3.3.4.4.4.4.4.4.5.R.R.5.4.",
";.;.;.;.;.;.;.;.:.:.:.:.;.;.;.>.4.4.4.4.R.R.4.4.4.4.R.R.5.3.>.>.<.<.>.>.3.3.>.>.<.<.>.>.R.R.4.4.4.4.4.4.4.4.4.4.4.4.4.4.R.R.4.4."
};
