/* XPM */
static char *_a6baaf0a738463dfd38eea1339aa422uQoyjchYiZZFKHQ6[] = {
/* columns rows colors chars-per-pixel */
"64 64 175 2 ",
"   c #0A1E19",
".  c #101C18",
"X  c #0D2217",
"o  c #0E2419",
"O  c #0E291D",
"+  c #102617",
"@  c #102719",
"#  c #122B1A",
"$  c #16321D",
"%  c #19341D",
"&  c #0D2923",
"*  c #0E2E2C",
"=  c #112624",
"-  c #112923",
";  c #0E322D",
":  c #153424",
">  c #153A26",
",  c #11342B",
"<  c #0F3735",
"1  c #0F3836",
"2  c #0F3C38",
"3  c #103F3E",
"4  c #262326",
"5  c #34252B",
"6  c #3A282E",
"7  c #223D21",
"8  c #3E2831",
"9  c #432C32",
"0  c #4C2E33",
"q  c #463133",
"w  c #4B3335",
"e  c #473934",
"r  c #563436",
"t  c #613737",
"y  c #633A37",
"u  c #6E3C38",
"i  c #723E39",
"p  c #24421F",
"a  c #1C4424",
"s  c #194629",
"d  c #1B4C29",
"f  c #1D522C",
"g  c #1F592F",
"h  c #154935",
"j  c #11413E",
"k  c #195339",
"l  c #204725",
"z  c #214B26",
"x  c #294C23",
"c  c #275729",
"v  c #345623",
"b  c #365B25",
"n  c #395F26",
"m  c #2C642E",
"M  c #3C6426",
"N  c #3C6528",
"B  c #3F6A2A",
"V  c #226434",
"C  c #246836",
"Z  c #2A7A3D",
"A  c #377D37",
"S  c #494233",
"D  c #515733",
"F  c #555C33",
"G  c #64473B",
"H  c #75433B",
"J  c #7B443A",
"K  c #7F4A3B",
"L  c #416927",
"P  c #406A29",
"I  c #47752B",
"U  c #48742A",
"Y  c #4D7C2C",
"T  c #55752D",
"R  c #507E2B",
"E  c #586634",
"W  c #5E7835",
"Q  c #647C2F",
"!  c #716938",
"~  c #6F7E37",
"^  c #124745",
"/  c #154F46",
"(  c #134B4A",
")  c #195A42",
"_  c #16554D",
"`  c #175A4E",
"'  c #195F4E",
"]  c #1A634E",
"[  c #1D6C4D",
"{  c #1B6550",
"}  c #1E6D50",
"|  c #1F7150",
" . c #206A45",
".. c #21744E",
"X. c #257D4E",
"o. c #217450",
"O. c #227850",
"+. c #80473A",
"@. c #844A3A",
"#. c #884E3A",
"$. c #8B503B",
"%. c #91533C",
"&. c #83753A",
"*. c #845343",
"=. c #975845",
"-. c #9A5A42",
";. c #A46147",
":. c #A56349",
">. c #AA664B",
",. c #B26C4E",
"<. c #398239",
"1. c #3C873B",
"2. c #54842D",
"3. c #58872B",
"4. c #5B8B2C",
"5. c #5E912E",
"6. c #5A8731",
"7. c #43963F",
"8. c #5E9231",
"9. c #61942F",
"0. c #638635",
"q. c #618D32",
"w. c #718635",
"e. c #629631",
"r. c #679D32",
"t. c #689F33",
"y. c #6AA234",
"u. c #6EA936",
"i. c #6FAB38",
"p. c #71AD37",
"a. c #72AF38",
"s. c #73B037",
"d. c #75B339",
"f. c #78B73A",
"g. c #7BBC3C",
"h. c #7FC13E",
"j. c #2D8744",
"k. c #2F8B45",
"l. c #27814E",
"z. c #29854D",
"x. c #2D8D4C",
"c. c #318D46",
"v. c #2F904C",
"b. c #309047",
"n. c #32954A",
"m. c #34994B",
"M. c #399F4C",
"N. c #3DA34C",
"B. c #469D42",
"V. c #40A64C",
"C. c #43AB4D",
"Z. c #48AE4C",
"A. c #4AB24D",
"S. c #4AB34D",
"D. c #4FB94E",
"F. c #52B449",
"G. c #51BA4E",
"H. c #52BB4E",
"J. c #56BE4D",
"K. c #57C14F",
"L. c #58C34F",
"P. c #5AC54F",
"I. c #5BC750",
"U. c #5CC950",
"Y. c #80C33E",
"T. c #82C63F",
"R. c #8B8F40",
"E. c #958344",
"W. c #83C740",
"Q. c #83C840",
"!. c #84C940",
"~. c #87CD41",
"^. c #88CF42",
"/. c #89D142",
"(. c #8BD343",
/* pixels */
"r.r.r.r.r.y.p.p.y.r.r.y.p.p.y.r.r.r.r.y.p.s.g.g.g.g.y.r.r.y.p.p.y.y.g.g.g.g.Q.!.!.Q.g.g.g.g.g.g.s.s.s.p.y.r.r.r.r.r.r.r.r.r.r.r.",
"r.r.r.r.y.y.s.s.y.y.r.y.p.p.y.y.y.y.y.y.p.a.f.g.g.f.y.y.y.y.p.p.y.y.g.g.g.g.T.Q.Q.T.g.g.f.f.f.f.s.a.p.p.y.r.y.y.y.y.y.y.y.y.r.r.",
"r.r.r.y.h.T.T.T.T.h.y.y.p.s.f.g.g.g.g.f.y.y.y.y.y.y.!.~.s.p.y.y.f.g.g.g.T.T.g.g.g.g.y.y.y.y.y.y.p.p.y.y.r.y.g.T.T.Y.g.g.g.f.y.r.",
"y.y.r.y.h.T.!.!.T.h.y.y.s.f.g.g.g.g.g.f.y.r.y.y.y.y.~.^.s.p.y.y.g.g.g.g.T.T.g.g.g.f.y.y.y.y.y.y.s.a.y.r.y.y.Y.Q.!.Q.h.g.g.g.y.y.",
"g.f.y.r.y.u.T.T.y.y.h.T.T.T.T.W.Q.T.f.a.y.y.f.g.g.g.g.g.y.y.p.s.T.Q.Q.T.f.f.T.Y.y.y.p.a.f.g.g.g.g.f.y.y.f.g.g.g.Q.!.(.(.g.g.g.g.",
"g.g.y.y.y.y.h.h.y.y.h.T.!.!.!.!.Q.T.f.a.y.y.f.g.g.g.g.g.y.y.a.f.T.Q.Q.T.f.f.T.T.y.t.p.a.f.g.g.g.g.f.y.y.f.g.g.g.T.!.(.(.h.g.g.g.",
"g.g.Y.h.s.p.s.s.y.r.y.u.T.!.!.Q.g.g.g.g.g.f.y.y.g.g.g.g.g.g.g.g.g.g.g.g.T.T.!.T.y.r.y.y.y.y.y.y.y.y.p.p.y.y.g.g.g.g.g.h.T.Y.y.y.",
"g.g.Q.T.s.s.p.p.y.y.y.y.Y.Q.Q.T.g.g.g.g.g.u.e.e.g.a.a.g.g.u.x x i.a.a.g.T.Q.Q.Y.y.y.y.y.y.y.y.y.y.y.a.p.y.y.f.g.g.g.g.g.T.h.y.r.",
"g.g.Q.T.s.p.y.y.f.g.g.g.g.g.g.g.g.g.(.y.2.a a a 2.z z e.e.z j.j.# a a 8.g.e.e.g.g.g.g.g.g.g.g.g.~.~.f.a.p.p.y.y.s.s.y.y.s.s.y.r.",
"g.h.Y.h.f.s.y.y.g.g.g.g.g.g.g.g.g.g.6.d o V.C.n.f V k.f f n.C.V.g n.N.c I f f Y g.g.g.g.g.g.g.g.(.^.f.s.a.p.y.y.p.p.y.y.p.p.y.r.",
"(.~.u.y.h.T.g.g.T.Q.Q.T.g.g.g.g.f.M X b.C m K.S.m.<.Z.m.m.S.L.L.N.S.K.c V m.n.X b N f.g.g.g.g.g.g.g.g.f.y.y.p.p.y.y.p.p.s.p.y.r.",
"(.!.y.y.Y.T.g.g.T.Q.!.Q.h.g.g.g.x 7.Z d m.B.L.L.H.U.L.N.H.L.L.L.H.L.L.B.N.H.S.% 7.7.x u.a.g.g.g.g.g.g.g.y.y.s.s.y.y.p.p.p.p.y.y.",
"y.y.p.s.g.g.g.g.g.g.Q.!.Q.Q.Q.e.+ L.L.H.L.U.L.L.P.L.L.L.L.L.L.L.P.L.L.U.K.L.L.H.I.J.X a l e.g.g.g.g.g.g.g.g.T.T.T.h.y.y.y.y.p.p.",
"r.y.p.s.g.g.g.g.g.g.T.Q.Q.Y.2.f f A Z.S.L.L.L.L.L.L.L.L.L.L.L.L.L.L.L.L.L.L.L.L.L.J.g N.n.# U Y g.g.g.g.g.g.T.Q.Q.Y.y.y.y.y.p.p.",
"r.y.p.s.T.Q.Q.T.g.g.g.g.g.s.o n.m.<.Z.m.L.L.L.L.L.L.L.L.L.L.L.L.L.L.L.L.L.L.L.L.L.Z.S.L.n.o V V N h.Q.T.g.g.g.g.g.g.g.f.a.p.y.y.",
"y.y.p.f.Y.T.!.Q.g.g.g.g.g.y.# s k.N.L.H.L.K.L.L.L.L.L.L.L.L.L.L.L.L.L.L.L.L.L.L.L.H.L.H.f B.H.m.@ h.Q.T.g.g.g.g.g.g.g.g.s.p.y.y.",
"p.p.s.s.s.f.T.!.Q.Q.Q.Q.g.$ c.k.d n.D.H.M.C.L.L.L.L.L.L.L.L.L.L.L.L.L.L.L.L.L.L.L.P.L.C.F.I.L.Z X 8.g.g.g.g.g.g.g.g.y.y.p.s.f.g.",
"p.p.p.p.a.s.T.!.T.T.T.T.T.B V n.n.C.C.m.C.L.L.L.L.L.L.L.L.L.L.L.L.L.L.L.L.L.L.L.L.L.L.L.L.L.Z.g c m Y g.g.g.g.g.g.f.y.y.a.s.g.h.",
"y.y.y.y.p.s.T.T.f.s.y.y.g.B V n.S.L.Z.m.L.L.L.L.L.L.L.L.L.L.L.L.L.L.L.L.L.L.L.L.L.L.L.L.L.L.S.m.Z.J.# s.y.y.y.y.s.a.y.y.f.g.(.(.",
"y.y.y.y.s.f.h.h.f.s.y.e.x O k.m.N.N.n.m.V.K.L.L.L.L.L.L.L.L.L.L.L.L.L.L.L.L.L.K.C.L.L.L.L.L.L.H.m.d # y.y.t.r.y.a.s.y.y.g.h.(.(.",
"g.g.g.g.^.~.u.y.g.g.T.% k.k.c M.J.S.N.K.J.C.L.L.L.L.L.L.L.L.L.L.L.L.L.L.L.L.L.N.S.L.L.L.L.L.H.L.K.c.k.$ y.p.t.y.f.g.g.g.(.(.h.h.",
"g.g.g.g.~.!.y.y.f.g.Q.P C n.S.L.L.Z.L.L.L.L.L.L.L.P.L.L.L.L.L.L.L.L.L.S.L.S.S.m.m.S.L.L.L.S.m.S.S.m.V b u.p.y.y.g.g.g.h.(.(.h.g.",
"y.y.g.g.u.y.t.r.y.y.y.v X b.m.C.L.L.L.L.L.L.L.L.L.Z.L.L.L.L.L.L.L.L.L.S.C.m.S.m.m.m.C.C.C.m.m.S.n.f L y.p.s.f.g.g.g.(.(.(.(.g.g.",
"r.y.f.f.y.r.r.r.r.r.e.o 1.d n.D.L.K.L.L.L.L.L.L.K.m.N.N.L.L.L.L.L.L.L.L.H.H.L.S.m.m.m.H.D.m.m.L.S.$ x e.a.s.g.g.g.g.(.(.(.(.g.g.",
"r.r.y.y.r.r.r.r.r.r.e.p  .k.m.L.H.N.D.L.L.L.L.D.M.N.H.N.L.L.L.L.L.L.L.L.L.L.C.m.m.N.m.H.L.K.m.H.L.H.F.% s.g.g.g.g.g.g.h.(.(.g.g.",
"r.r.y.y.y.y.y.y.y.y.y.r.o V n.S.m.m.C.L.L.L.L.Z.m.S.L.L.L.L.L.L.L.L.L.L.L.L.L.Z.Z.K.m.m.S.S.m.m.S.L.<.M f.g.g.g.g.g.g.g.^.^.g.g.",
"r.y.p.s.h.T.T.Y.g.g.s.n k V n.n.m.m.L.L.L.L.Z.C.m.m.L.L.L.Z.L.L.L.L.L.L.L.L.L.P.L.C.m.S.S.m.m.m.n.m 2.T.g.g.g.g.g.g.g.g.f.s.y.y.",
"y.y.p.s.T.T.!.Q.g.g.f.$ ] ..s n.m.H.L.L.K.L.H.m.m.H.L.K.N.m.K.L.L.V.N.V.L.P.L.L.L.H.H.K.N.m.m.m.j.@ T.T.g.g.g.g.g.g.g.f.s.p.y.y.",
"p.p.s.s.s.f.T.!.Q.Q.W.d.x O  .n.m.L.L.H.M.H.H.m.m.H.H.m.N.N.M.H.L.K.m.K.L.H.L.L.H.L.L.V.m.m.n.Z > : e.g.g.g.g.g.g.g.y.y.p.s.f.g.",
"p.p.p.p.a.s.T.!.T.T.T.T.h.# n.m.m.S.S.m.m.m.m.m.m.m.m.C.L.S.m.m.S.S.m.S.S.m.S.L.m.S.L.L.m.m.n.h [ [ o s.g.g.g.g.g.f.y.y.a.s.g.h.",
"y.y.y.y.p.s.T.T.f.s.y.y.N k n.l.l.n.n.m.m.m.m.n.l.n.m.C.C.m.m.m.n.n.m.n.n.m.m.C.m.m.C.C.l.n.n.z.[ s Y f.y.y.y.y.s.s.y.y.f.g.(.(.",
"y.y.y.y.s.f.h.h.f.s.y.y.$ [ O.| x.m.n.X.X.n.n.X.x.m.m.n.n.m.m.m.m.m.m.m.n.n.m.n.n.X.n.n.x.X.j.> a 8.g.f.y.t.r.y.a.s.y.y.g.h.(.(.",
"g.g.g.g.^.~.u.y.g.g.~.~.i.O ) ) x.x.o.| n.m.x.| ..x.x.X.n.m.v.n.n.x.m.n.X...x.n.X.} ..x.x.[ > - U y.s.s.p.p.t.y.f.g.g.g.(.(.h.h.",
"g.g.g.g.~.!.y.y.f.g.~.~.f.b X ; [ | ] | z.z.| } } } | n.m.z.o.n.n.l.z.m.n.| | z.z.| } ] { ] ] ( X e.p.p.s.p.y.y.g.g.g.h.(.(.h.g.",
"y.y.g.g.u.y.t.r.y.y.y.y.y.r.o ( _ h ' } } [ ' } } } | X.X.} | l.n.n.| X.X.| } ` ` } } ( ; ( ; , L r.y.y.p.s.f.g.g.g.(.(.(.(.g.g.",
"r.y.f.f.y.r.r.r.r.r.r.r.r.r.R : & j } } / ; ( } } ` } } } } } } ....| } ` } } ] ( ( _ ( j & R 3.y.y.y.y.a.s.g.g.g.g.(.(.(.(.g.g.",
"r.r.y.y.r.r.r.r.r.r.r.r.r.r.r.5.p 3 j j * ^ ) ] ` } ] ` } ] _ ] } ` } } ] ^ { } ( * 3 j 3 x f.g.g.g.g.g.g.g.g.g.g.g.g.h.(.(.g.g.",
"r.r.r.r.r.r.y.y.r.r.r.r.y.y.r.y.a.M b b < < ; ( ' k ( ' ] ( 2 ( ] ' 2 ' ( ; 1 1 ( (   x P !.g.g.g.g.g.g.g.g.g.g.g.g.g.g.~.~.g.g.",
"r.r.r.r.r.y.p.p.y.r.r.y.p.p.y.r.y.y.y.y.U X ( ( ; < ( ( ( ; 4 * ( * 4 * ( ( o I , , Y g.g.g.g.g.s.s.s.s.y.y.y.y.y.y.y.y.y.y.y.y.",
"r.r.r.r.y.y.s.s.y.y.r.y.p.a.y.y.y.y.y.y.p.6.> : @ ^ ^ - = 5 9 . = 5 8 5 - : e.T.y.y.g.g.g.g.g.f.s.a.p.p.y.r.y.y.y.y.y.y.y.y.r.r.",
"r.r.r.y.h.T.T.T.T.h.y.y.p.s.f.g.g.g.g.f.y.r.5.4.R 7 7 6 0 u u 8 9 0 9 i 9 e.y.y.g.f.y.y.y.y.y.y.p.p.y.y.r.y.g.T.T.Y.g.g.g.f.y.r.",
"y.y.r.y.h.T.!.!.T.h.y.y.s.f.g.g.g.g.g.p.e.3.3.3.3.4.y.q -.+.i r J i 9 #.q t.y.t.r.r.4.e.e.y.y.y.s.a.y.r.y.y.Y.Q.!.Q.h.g.g.g.y.y.",
"g.f.y.r.y.u.T.T.y.y.h.T.T.T.T.W.Q.Y.y.9.3.3.r.r.r.r.r.w ,.:.@.J :.@.y J q e.y.y.4.4.5.9.r.u.g.g.g.f.y.y.f.g.g.g.Q.!.(.(.g.g.g.g.",
"g.g.y.y.y.y.h.h.y.y.h.T.!.!.!.!.T.a.e.9.4.4.r.r.t.t.r.w >.-.J K ,.%.J @.q e.u.y.4.3.5.9.r.r.y.f.g.f.y.y.f.g.g.g.T.!.(.(.g.g.g.g.",
"g.g.Y.h.s.p.s.s.y.r.y.u.T.!.!.W.y.t.r.r.r.r.4.4.r.t.r.q H #.J :.,.$.H $.q y.u.y.4.3.3.3.3.3.3.4.y.y.p.p.y.y.g.g.g.g.g.h.T.Y.y.y.",
"g.g.Q.T.s.s.p.p.y.y.y.y.Y.Q.W.g.y.t.y.y.r.r.4.4.r.r.r.9 J i y %.-.J @.$.q y.u.y.4.3.3.3.3.3.3.3.r.y.a.p.y.y.f.g.g.g.g.g.T.h.y.r.",
"g.g.Q.T.s.p.y.y.f.g.g.g.g.g.g.y.t.y.a.p.4.4.r.r.e.9.F *.%.@.9 J i r J %.*.F r.t.r.r.r.r.r.r.r.t.p.!.f.a.p.p.y.y.s.s.y.y.s.s.y.r.",
"g.h.Y.h.f.s.y.y.g.g.g.g.g.g.y.t.t.y.s.p.4.4.r.t.e.q.w ,.>.#.0 @.r 8 0 ;.,.w q.y.y.y.t.t.t.t.t.y.s.f.f.s.a.p.y.y.p.p.y.y.p.p.y.r.",
"(.~.u.u.h.T.g.g.T.Q.Q.T.g.g.t.t.t.t.y.y.y.y.u.y.r.e >.%.K 0 i -.:.9 S w $.;.G 0.y.u.t.t.t.t.t.t.y.y.g.f.y.y.p.p.y.y.p.p.s.p.y.r.",
"(.!.y.y.Y.T.g.g.T.Q.!.Q.g.g.p.y.r.r.t.y.y.y.u.y.E H =.t D D y :.,.q t.E ! &.E.E y.u.y.t.t.t.t.t.t.p.g.g.y.y.s.s.y.y.p.p.p.p.y.y.",
"y.y.p.s.g.g.g.g.g.g.Q.!.Q.Q.W.y.4.4.y.y.4.4.y.y.W R.~ W u.y.q y -.*.F t.y.y.f.f.p.u.u.u.t.t.t.t.y.g.g.g.g.g.T.T.T.h.y.y.y.y.p.p.",
"r.y.p.s.g.g.g.g.g.g.T.Q.Q.T.T.g.4.4.y.y.4.4.y.u.p.p.s.p.y.y.T T Q w.6.t.t.y.s.s.p.u.y.y.t.r.t.t.f.g.g.g.g.g.T.Q.Q.Y.y.y.y.y.p.p.",
"r.y.p.s.T.Q.Q.T.g.g.g.g.g.g.y.y.y.r.4.4.r.r.y.y.u.p.s.a.4.4.y.u.u.u.p.u.u.u.p.p.p.y.4.4.9.e.r.y.T.Q.Q.T.g.g.g.g.g.g.g.f.a.p.y.y.",
"y.y.p.s.Y.T.!.Q.g.g.g.g.g.g.y.y.g.u.4.4.r.y.y.y.y.u.s.p.4.4.y.u.u.u.y.y.u.u.u.u.y.y.4.4.9.e.u.g.T.Q.Q.T.g.g.g.g.g.g.g.g.s.p.y.y.",
"p.p.s.s.s.f.T.!.Q.Q.Q.Q.Q.T.g.g.T.W.f.y.t.t.y.t.y.y.y.y.r.r.u.u.y.r.4.4.y.u.u.y.4.4.y.y.u.g.g.g.g.g.g.g.g.g.g.g.g.g.y.y.p.s.f.g.",
"p.p.p.p.a.s.T.!.T.T.T.T.!.Q.g.g.Y.T.W.g.f.y.y.y.t.r.r.t.t.y.y.y.r.r.4.4.y.y.u.y.5.4.u.h.Y.Q.g.g.g.g.g.g.g.g.g.g.g.f.y.y.a.s.g.g.",
"y.y.y.y.p.s.T.T.f.s.y.y.T.!.Q.Y.y.y.g.g.g.g.g.g.y.y.y.y.r.r.t.r.4.4.r.r.r.t.y.u.g.h.T.!.!.!.Q.T.g.g.g.g.y.y.y.y.s.a.y.y.f.g.(.(.",
"y.y.y.y.s.f.h.h.f.s.y.u.Y.T.T.h.y.y.f.g.g.g.g.g.g.g.g.g.p.p.p.u.e.e.u.u.s.s.g.g.T.Q.W.W.W.W.Q.T.g.g.g.f.y.t.r.y.a.s.y.y.g.h.(.(.",
"g.g.g.g.^.~.u.y.g.g.~.~.h.g.y.y.p.p.y.y.y.y.s.s.y.y.Y.W.Q.Q.Q.T.T.Y.g.g.g.g.g.g.g.g.g.g.g.g.g.g.y.y.s.s.p.p.t.y.f.g.g.g.(.(.h.h.",
"g.g.g.g.~.!.y.y.f.g.~.~.g.f.y.y.p.p.y.y.r.y.p.p.t.y.h.T.T.T.T.T.T.T.h.g.g.g.g.g.g.g.g.g.g.g.g.f.y.t.p.p.s.p.y.y.g.g.g.h.(.(.h.g.",
"y.y.g.g.u.y.t.r.y.y.y.y.y.y.r.y.p.s.p.p.t.r.y.y.r.y.s.s.y.y.s.s.y.u.~.~.y.y.s.s.y.y.y.y.a.a.y.y.r.r.y.y.p.s.f.g.g.g.(.(.(.(.h.g.",
"r.y.f.f.y.r.r.r.r.r.r.r.r.r.r.y.a.s.s.s.y.y.y.y.y.y.s.s.y.y.p.p.y.y.!.!.y.y.p.p.y.y.r.y.s.s.y.y.y.y.y.y.a.s.g.g.g.g.(.(.(.(.g.g.",
"r.r.y.y.r.r.r.r.r.r.r.r.r.r.r.y.f.g.g.g.~.~.g.g.g.g.^.^.g.f.y.y.p.p.y.y.f.f.y.y.p.p.y.y.!.^.g.g.g.g.g.g.g.g.g.g.g.g.g.h.(.(.h.g.",
"r.r.r.r.r.r.r.r.r.r.r.r.r.r.r.y.g.g.g.g.(.(.g.g.g.g.(.(.h.g.y.y.p.p.y.y.g.g.y.y.p.p.y.y.(.(.g.g.g.g.g.g.g.g.g.g.g.g.g.g.(.(.h.g."
};
