/* XPM */
static char *_c3ef52afe7d42729e79fca17f7dcd59mIxCDE97lUPn412X[] = {
/* columns rows colors chars-per-pixel */
"64 64 157 2 ",
"   c None",
".  c #091D16",
"X  c #0B1E19",
"o  c #101C18",
"O  c #0C2117",
"+  c #0C2319",
"@  c #0D291B",
"#  c #122D1B",
"$  c #16371F",
"%  c #0B2622",
"&  c #0E2E22",
"*  c #0E2E2B",
"=  c #112624",
"-  c #102925",
";  c #0E3023",
":  c #0E312D",
">  c #123722",
",  c #133A23",
"<  c #123D2B",
"1  c #0F3735",
"2  c #0F3836",
"3  c #0F3C38",
"4  c #103F3E",
"5  c #262326",
"6  c #34252B",
"7  c #3D262E",
"8  c #3D2730",
"9  c #3F2831",
"0  c #432A32",
"q  c #4C2E33",
"w  c #4E3136",
"e  c #563436",
"r  c #583335",
"t  c #613737",
"y  c #623937",
"u  c #683933",
"i  c #613C3A",
"p  c #6E3C38",
"a  c #723E39",
"s  c #174326",
"d  c #1F4D27",
"f  c #16452A",
"g  c #1A4B29",
"h  c #1C522C",
"j  c #1F592F",
"k  c #134331",
"l  c #164D37",
"z  c #11413E",
"x  c #154D3A",
"c  c #175038",
"v  c #22542A",
"b  c #2A5F2C",
"n  c #29612D",
"m  c #2D682F",
"M  c #216434",
"N  c #246836",
"B  c #2A7A3D",
"V  c #377D37",
"C  c #75423B",
"Z  c #7B443A",
"A  c #7F4A3B",
"S  c #124745",
"D  c #154F46",
"F  c #134B4A",
"G  c #195A42",
"H  c #16554D",
"J  c #175A4E",
"K  c #195F4E",
"L  c #1F6542",
"P  c #1A644E",
"I  c #1D6C4E",
"U  c #1B6550",
"Y  c #1E6D50",
"T  c #1F7150",
"R  c #206D47",
"E  c #21744E",
"W  c #257D4E",
"Q  c #217450",
"!  c #227850",
"~  c #844C37",
"^  c #80473A",
"/  c #844A3A",
"(  c #884E3A",
")  c #8B503B",
"_  c #91533C",
"`  c #855143",
"'  c #975845",
"]  c #9B5B43",
"[  c #A46147",
"{  c #A86347",
"}  c #A4634A",
"|  c #AA664B",
" . c #B26C4E",
".. c #398037",
"X. c #398239",
"o. c #3E8E3F",
"O. c #43963F",
"+. c #2D8744",
"@. c #2F8B45",
"#. c #27814E",
"$. c #29854D",
"%. c #2D8D4C",
"&. c #318F46",
"*. c #2F904C",
"=. c #309047",
"-. c #32954A",
";. c #34994B",
":. c #399F4C",
">. c #3DA34C",
",. c #469D42",
"<. c #40A64C",
"1. c #44AB4D",
"2. c #44AC4D",
"3. c #45AD4D",
"4. c #47AD4D",
"5. c #47AF4D",
"6. c #45AE4E",
"7. c #42A94D",
"8. c #48AD4B",
"9. c #49AF4C",
"0. c #4EB34B",
"q. c #48B04D",
"w. c #49B14D",
"e. c #49B24D",
"r. c #4AB34D",
"t. c #4AB24D",
"y. c #4BB44D",
"u. c #4DB64E",
"i. c #4CB54E",
"p. c #4FB94E",
"a. c #4FB84E",
"s. c #51B148",
"d. c #52B64A",
"f. c #54B84B",
"g. c #50B94E",
"h. c #50BA4E",
"j. c #51BB4E",
"k. c #52BB4E",
"l. c #53BA4C",
"z. c #53BC4E",
"x. c #57BF4D",
"c. c #55BF4E",
"v. c #55BC4C",
"b. c #56C04F",
"n. c #57C14F",
"m. c #57C24F",
"M. c #55C04F",
"N. c #58C34F",
"B. c #59C34F",
"V. c #59C34E",
"C. c #59C44F",
"Z. c #5AC54F",
"A. c #5AC44F",
"S. c #5AC64F",
"D. c #5BC64F",
"F. c #5BC750",
"G. c #5CC950",
/* pixels */
"                                                                                                                                ",
"                                                                                                                                ",
"                                                                                                                                ",
"                                                                                                                                ",
"                                                                                                                                ",
"                                                                                                                                ",
"                                                                                                                                ",
"                                                            @ @                                                                 ",
"                                          > , ,   , ,     , +.+.O > >                                                           ",
"                                      g + <.7.-.h M @.h h -.7.<.j -.>.j   g g                                                   ",
"                                  . + =.N m x.r.;.X.9.;.;.r.C.C.>.r.x.j M ;.-.+ . .                                             ",
"                                @ O.B g ;.,.V.C.z.G.C.>.h.C.C.C.z.C.V.,.>.h.0.$ O.O.@                                           ",
"                                O V.C.f.V.F.C.C.C.C.C.m.C.C.C.C.C.C.C.F.m.C.C.f.F.x.+ > ,                                       ",
"                              g h V 9.y.C.C.C.C.C.C.C.C.C.C.C.C.C.C.C.C.C.C.C.C.C.x.j >.-.+                                     ",
"                            + -.;.X.4.;.C.C.C.C.C.C.C.C.C.C.C.C.C.C.C.C.C.C.C.C.C.4.i.V.-.@ M M +                               ",
"                            @ s @.>.C.z.m.m.C.C.C.C.C.C.C.C.C.C.C.C.C.C.C.C.C.C.C.h.C.h.h ,.h.;.+                               ",
"                          + @.@.g -.a.h.;.<.V.C.C.C.C.C.C.C.C.C.C.C.C.C.C.C.C.C.C.C.V.7.d.F.V.B .                               ",
"                          + M -.-.7.7.;.7.V.C.C.C.C.C.C.C.C.C.C.C.C.C.C.C.C.C.C.C.C.C.C.C.C.8.j b b                             ",
"                          + M -.r.V.4.;.V.C.C.C.C.C.C.C.C.C.C.C.C.C.C.C.C.C.C.C.C.C.C.C.C.C.r.;.4.x.@                           ",
"                        @ @ @.;.>.>.-.;.<.x.C.C.C.C.C.C.C.C.C.C.C.C.C.C.C.C.C.m.7.C.C.C.C.C.C.h.;.d @                           ",
"                      + @.@.v :.x.i.>.m.x.7.V.C.C.C.C.C.C.C.C.C.C.C.C.C.C.C.C.:.i.C.C.C.C.C.z.C.m.&.@.+                         ",
"                      + M -.r.C.C.4.V.C.C.C.C.C.C.C.C.C.C.C.C.C.C.C.C.y.C.y.r.;.;.r.C.C.C.r.;.r.r.;.M +                         ",
"                      . O =.;.7.C.C.C.C.C.C.C.C.C.4.C.C.C.C.C.C.C.C.C.r.7.;.4.;.;.;.7.7.7.;.;.4.-.h                             ",
"                      + o.g -.a.C.m.C.C.C.C.C.C.x.;.>.>.C.C.C.C.C.C.C.C.h.h.m.i.;.-.;.a.a.;.;.C.0.# #                           ",
"                      + L @.;.C.h.:.a.C.C.C.C.a.:.>.z.>.V.C.C.C.C.C.C.C.C.C.<.;.;.>.;.h.C.m.;.h.C.f.s.@                         ",
"                        . M -.r.;.;.7.C.C.C.C.4.;.r.C.C.C.C.C.C.C.C.C.C.C.C.V.1.4.m.;.;.r.r.;.;.r.C...@                         ",
"                      + l M -.-.;.;.V.C.C.C.4.7.;.;.V.C.V.4.C.C.C.C.C.C.C.C.C.C.C.7.;.r.r.;.;.;.-.n                             ",
"                      + P E f -.;.h.C.C.m.C.h.;.;.h.C.m.>.;.x.C.V.<.>.<.V.C.C.C.C.h.h.m.>.;.;.;.+..                             ",
"                        + @ R -.;.C.C.h.:.h.h.;.;.h.h.;.>.>.:.h.C.m.;.m.C.z.C.C.z.C.C.<.;.;.-.B , &                             ",
"                          O -.;.;.r.r.;.;.;.;.;.;.;.;.1.V.r.;.;.r.r.;.r.r.;.r.V.;.r.C.V.;.;.-.k I I +                           ",
"                        + c -.#.#.-.-.;.;.;.;.-.#.-.;.7.7.;.;.;.-.-.;.-.-.;.;.7.;.;.7.7.#.-.-.$.I <                             ",
"                        + P ! T %.;.-.W W -.-.W %.;.;.-.-.;.;.;.;.;.;.;.-.-.;.-.-.W -.-.%.W +., ;                               ",
"                          + G G %.%.Q T -.;.%.T E %.%.W -.;.*.-.-.%.;.-.W E %.-.W Y E %.%.I < %                                 ",
"                          . . : I T P T $.$.T Y Y Y T -.;.$.Q -.-.#.$.;.-.T T $.$.T Y P U P P F X                               ",
"                            X F H k K Y Y I K Y Y Y T W W Y T #.-.-.T W W T Y J J Y Y F : F : *                                 ",
"                              % % z Y Y D : F Y Y J Y Y Y Y Y Y E E T Y J Y Y P F F H F z %                                     ",
"                                . 4 z z * S G P J Y P J Y P H P Y J Y Y P S U Y F * 4 z 4 .                                     ",
"                                  . . X 1 2 : F K x F K P F 3 F P K 3 K F : 2 2 F F X . .                                       ",
"                                          . F F : 1 F F F : 5 * F * 5 * F F .   * *                                             ",
"                                            % % . S S - = 6 0 o = 6 9 6 = %                                                     ",
"                                                  X X 7 q p p 9 0 q 0 a 7                                                       ",
"                                                      0 ] ^ a r Z a 0 ( 0                                                       ",
"                                                      0  .{ / Z { / y Z 0                                                       ",
"                                                      0 | ] Z A  ._ Z / 0                                                       ",
"                                                      0 C ( Z {  .) C ) 0                                                       ",
"                                                      9 Z a y _ ] Z / ) 0                                                       ",
"                                                    7 ` _ / 0 Z a r Z _ ` 7                                                     ",
"                                                    w  .| ( q / e 9 q [  .w                                                     ",
"                                                  0 | _ A q a ] } 0 8 w ) [ i                                                   ",
"                                                7 C ' t 7 7 y {  .0   7 u ~ ] 7                                                 ",
"                                                            9 y ] ` 7                                                           ",
"                                                                                                                                ",
"                                                                                                                                ",
"                                                                                                                                ",
"                                                                                                                                ",
"                                                                                                                                ",
"                                                                                                                                ",
"                                                                                                                                ",
"                                                                                                                                ",
"                                                                                                                                ",
"                                                                                                                                ",
"                                                                                                                                ",
"                                                                                                                                ",
"                                                                                                                                "
};
